<svg width="18" height="21" viewBox="0 0 18 21" fill="none" xmlns="http://www.w3.org/2000/svg">
<path fill-rule="evenodd" clip-rule="evenodd" d="M13.9497 4.05025C11.2161 1.31658 6.78392 1.31658 4.05025 4.05025C1.31658 6.78392 1.31658 11.2161 4.05025 13.9497L8.29374 18.1932C8.68398 18.5835 9.31589 18.5836 9.70669 18.1928L13.9497 13.9497C16.6834 11.2161 16.6834 6.78392 13.9497 4.05025ZM2.63604 2.63604C6.15076 -0.87868 11.8492 -0.87868 15.364 2.63604C18.8787 6.15076 18.8787 11.8492 15.364 15.364L11.8617 18.8662C11.8303 18.8976 11.8754 18.8525 11.844 18.8839L11.1209 19.607C9.94961 20.7783 8.05137 20.7793 6.87952 19.6074L2.63604 15.364C-0.87868 11.8492 -0.87868 6.15076 2.63604 2.63604ZM9 7C7.89543 7 7 7.89543 7 9C7 10.1046 7.89543 11 9 11C10.1046 11 11 10.1046 11 9C11 7.89543 10.1046 7 9 7ZM5 9C5 6.79086 6.79086 5 9 5C11.2091 5 13 6.79086 13 9C13 11.2091 11.2091 13 9 13C6.79086 13 5 11.2091 5 9Z" fill="#4B5563"/>
</svg>
