<svg width="14" height="14" viewBox="0 0 14 14" fill="none" xmlns="http://www.w3.org/2000/svg">
<path fill-rule="evenodd" clip-rule="evenodd" d="M13.3996 7.0001C13.3996 10.5347 10.5342 13.4001 6.99962 13.4001C3.46499 13.4001 0.599609 10.5347 0.599609 7.0001C0.599609 3.46548 3.46499 0.600098 6.99962 0.600098C10.5342 0.600098 13.3996 3.46548 13.3996 7.0001ZM7.79962 3.8001C7.79962 4.24193 7.44145 4.6001 6.99962 4.6001C6.55779 4.6001 6.19962 4.24193 6.19962 3.8001C6.19962 3.35827 6.55779 3.0001 6.99962 3.0001C7.44145 3.0001 7.79962 3.35827 7.79962 3.8001ZM6.19962 6.2001C5.75779 6.2001 5.39962 6.55827 5.39962 7.0001C5.39962 7.44193 5.75779 7.8001 6.19962 7.8001V10.2001C6.19962 10.6419 6.55779 11.0001 6.99962 11.0001H7.79962C8.24145 11.0001 8.59962 10.6419 8.59962 10.2001C8.59962 9.75827 8.24145 9.4001 7.79962 9.4001V7.0001C7.79962 6.55827 7.44145 6.2001 6.99962 6.2001H6.19962Z" fill="#6B7280"/>
</svg>
