<svg width="8" height="8" viewBox="0 0 8 8" fill="none" xmlns="http://www.w3.org/2000/svg">
<path fill-rule="evenodd" clip-rule="evenodd" d="M8 4C8 6.20914 6.20914 8 4 8C1.79086 8 0 6.20914 0 4C0 1.79086 1.79086 0 4 0C6.20914 0 8 1.79086 8 4ZM4.00001 2.5C3.81557 2.5 3.6538 2.59961 3.56659 2.75036C3.42832 2.98939 3.12246 3.07107 2.88343 2.9328C2.6444 2.79453 2.56271 2.48867 2.70099 2.24964C2.95959 1.80259 3.44417 1.5 4.00001 1.5C4.82843 1.5 5.50001 2.17157 5.50001 3C5.50001 3.65311 5.0826 4.20873 4.50001 4.41465V4.5C4.50001 4.77614 4.27615 5 4.00001 5C3.72386 5 3.50001 4.77614 3.50001 4.5V4C3.50001 3.72386 3.72386 3.5 4.00001 3.5C4.27615 3.5 4.50001 3.27614 4.50001 3C4.50001 2.72386 4.27615 2.5 4.00001 2.5ZM4 6.5C4.27614 6.5 4.5 6.27614 4.5 6C4.5 5.72386 4.27614 5.5 4 5.5C3.72386 5.5 3.5 5.72386 3.5 6C3.5 6.27614 3.72386 6.5 4 6.5Z" fill="#6B7280"/>
</svg>
