<svg width="14" height="12" viewBox="0 0 14 12" fill="none" xmlns="http://www.w3.org/2000/svg">
<path fill-rule="evenodd" clip-rule="evenodd" d="M0.333323 2.66675C0.333323 1.56218 1.22875 0.666748 2.33332 0.666748H11.6667C12.7712 0.666748 13.6667 1.56218 13.6667 2.66675V3.32307C13.6667 3.32956 13.6667 3.33605 13.6667 3.34253V9.33341C13.6667 10.438 12.7712 11.3334 11.6667 11.3334H2.33332C1.22875 11.3334 0.333323 10.438 0.333323 9.33341V3.34253C0.333228 3.33605 0.333228 3.32956 0.333323 3.32307V2.66675ZM1.66666 4.57909V9.33341C1.66666 9.7016 1.96513 10.0001 2.33332 10.0001H11.6667C12.0348 10.0001 12.3333 9.7016 12.3333 9.33341V4.57909L8.10939 7.39505C7.43759 7.84291 6.56239 7.84291 5.89059 7.39505L1.66666 4.57909ZM12.3333 2.97663L7.36979 6.28565C7.14586 6.43494 6.85412 6.43494 6.63019 6.28565L1.66666 2.97663V2.66675C1.66666 2.29856 1.96513 2.00008 2.33332 2.00008H11.6667C12.0348 2.00008 12.3333 2.29856 12.3333 2.66675V2.97663Z" fill="#6B7280"/>
</svg>
