<svg width="20" height="16" viewBox="0 0 20 16" fill="none" xmlns="http://www.w3.org/2000/svg">
<path fill-rule="evenodd" clip-rule="evenodd" d="M-1.57654e-05 3C-1.57654e-05 1.34315 1.34313 0 2.99998 0H17C18.6568 0 20 1.34315 20 3V3.98448C20.0001 3.99422 20.0001 4.00395 20 4.01368V13C20 14.6569 18.6568 16 17 16H2.99998C1.34313 16 -1.57654e-05 14.6569 -1.57654e-05 13V4.01367C-0.000157386 4.00395 -0.000157624 3.99422 -1.57654e-05 3.98449V3ZM1.99998 5.86852V13C1.99998 13.5523 2.4477 14 2.99998 14H17C17.5523 14 18 13.5523 18 13V5.86852L11.6641 10.0925C10.6564 10.7642 9.34358 10.7642 8.33588 10.0925L1.99998 5.86852ZM18 3.46482L10.5547 8.42835C10.2188 8.65228 9.78118 8.65228 9.44528 8.42835L1.99998 3.46482V3C1.99998 2.44772 2.4477 2 2.99998 2H17C17.5523 2 18 2.44772 18 3V3.46482Z" fill="#4B5563"/>
</svg>
