<svg width="36" height="36" viewBox="0 0 36 36" fill="none" xmlns="http://www.w3.org/2000/svg">
<path fill-rule="evenodd" clip-rule="evenodd" d="M18 4C10.268 4 4 10.268 4 18C4 25.732 10.268 32 18 32C25.732 32 32 25.732 32 18C32 10.268 25.732 4 18 4ZM0.5 18C0.5 8.33502 8.33502 0.5 18 0.5C27.665 0.5 35.5 8.33502 35.5 18C35.5 27.665 27.665 35.5 18 35.5C8.33502 35.5 0.5 27.665 0.5 18ZM13.2626 13.2626C13.946 12.5791 15.054 12.5791 15.7374 13.2626L18 15.5251L20.2626 13.2626C20.946 12.5791 22.054 12.5791 22.7374 13.2626C23.4209 13.946 23.4209 15.054 22.7374 15.7374L20.4749 18L22.7374 20.2626C23.4209 20.946 23.4209 22.054 22.7374 22.7374C22.054 23.4209 20.946 23.4209 20.2626 22.7374L18 20.4749L15.7374 22.7374C15.054 23.4209 13.946 23.4209 13.2626 22.7374C12.5791 22.054 12.5791 20.946 13.2626 20.2626L15.5251 18L13.2626 15.7374C12.5791 15.054 12.5791 13.946 13.2626 13.2626Z" fill="#6B7280"/>
</svg>
