<svg width="16" height="16" viewBox="0 0 16 16" fill="none" xmlns="http://www.w3.org/2000/svg">
<path fill-rule="evenodd" clip-rule="evenodd" d="M9.66667 2.16667C9.20643 2.16667 8.83333 1.79357 8.83333 1.33333C8.83333 0.873096 9.20643 0.5 9.66667 0.5H14.6667C15.1269 0.5 15.5 0.873096 15.5 1.33333V6.33333C15.5 6.79357 15.1269 7.16667 14.6667 7.16667C14.2064 7.16667 13.8333 6.79357 13.8333 6.33333V3.34518L6.92259 10.2559C6.59715 10.5814 6.06951 10.5814 5.74408 10.2559C5.41864 9.93049 5.41864 9.40285 5.74408 9.07741L12.6548 2.16667H9.66667ZM3 3.83333C2.53976 3.83333 2.16667 4.20643 2.16667 4.66667V13C2.16667 13.4602 2.53976 13.8333 3 13.8333H11.3333C11.7936 13.8333 12.1667 13.4602 12.1667 13V9.66667C12.1667 9.20643 12.5398 8.83333 13 8.83333C13.4602 8.83333 13.8333 9.20643 13.8333 9.66667V13C13.8333 14.3807 12.714 15.5 11.3333 15.5H3C1.61929 15.5 0.5 14.3807 0.5 13V4.66667C0.5 3.28595 1.61929 2.16667 3 2.16667H6.33333C6.79357 2.16667 7.16667 2.53976 7.16667 3C7.16667 3.46024 6.79357 3.83333 6.33333 3.83333H3Z" fill="#9CA3AF"/>
</svg>
