<svg width="40" height="26" viewBox="0 0 40 26" fill="none" xmlns="http://www.w3.org/2000/svg">
<path d="M1.06561 11.7693L18.7607 0.324715C19.5317 -0.108238 20.4761 -0.108238 21.2471 0.324715L38.942 11.7693C39.636 12.1083 39.9445 12.9176 39.5975 13.6141C39.4625 13.8965 39.2313 14.1224 38.942 14.2541L36.5712 15.7789C30.7693 6.83772 18.6642 4.18355 9.50833 9.83073C7.06031 11.3552 4.97856 13.3696 3.41725 15.7789L1.02706 14.2541C0.333152 13.8965 0.0632917 13.0683 0.410246 12.3907C0.564464 12.1272 0.795746 11.9014 1.06561 11.7693ZM19.9749 11.6376C14.9054 11.6566 10.183 14.1979 7.48439 18.3954L11.5515 21.0308C14.3465 16.4943 20.3799 15.0448 25.0059 17.7743C26.3745 18.5836 27.5117 19.6943 28.3407 21.0308L32.4077 18.3954C29.7476 14.1789 25.0443 11.619 19.9749 11.6376ZM19.9749 21.2001C18.1822 21.2191 16.5438 22.1601 15.6571 23.6849L18.3945 25.4355C18.8377 25.812 19.3967 26 19.9749 26C20.5534 26 21.1316 25.7931 21.5556 25.4355L24.2926 23.6849C23.4252 22.1414 21.7675 21.2001 19.9749 21.2001Z" fill="url(#paint0_linear_2413_1526)"/>
<defs>
<linearGradient id="paint0_linear_2413_1526" x1="19.9911" y1="25.9934" x2="19.9911" y2="0.00312926" gradientUnits="userSpaceOnUse">
<stop stop-color="#EFC119"/>
<stop offset="0.3314" stop-color="#92C84E"/>
<stop offset="0.4859" stop-color="#71BF5B"/>
<stop offset="0.7506" stop-color="#15B158"/>
<stop offset="0.903" stop-color="#23AC69"/>
<stop offset="1" stop-color="#23AC69"/>
</linearGradient>
</defs>
</svg>
