<svg width="75" height="75" viewBox="0 0 75 75" fill="none" xmlns="http://www.w3.org/2000/svg">
<g filter="url(#filter0_dd_939_40646)">
<rect x="3" y="2" width="69" height="69" rx="20" fill="white"/>
<path fill-rule="evenodd" clip-rule="evenodd" d="M25.1665 21.8333C24.154 21.8333 23.3332 22.6541 23.3332 23.6666V40.4796C23.9066 40.2769 24.5237 40.1666 25.1665 40.1666H37.0832C37.5694 40.1666 38.0357 40.3598 38.3795 40.7036L39.6759 42H51.5334L47.3601 33.6532C47.102 33.1371 47.102 32.5295 47.3601 32.0134L51.5334 23.6666H39.8332V31C39.8332 32.0125 39.0124 32.8333 37.9998 32.8333C36.9873 32.8333 36.1665 32.0125 36.1665 31V21.8333H25.1665ZM39.6759 20H54.4998C55.1352 20 55.7253 20.329 56.0594 20.8695C56.3934 21.4099 56.4238 22.0849 56.1396 22.6532L51.0496 32.8333L56.1396 43.0134C56.4238 43.5817 56.3934 44.2566 56.0594 44.7971C55.7253 45.3376 55.1352 45.6666 54.4998 45.6666H38.9165C38.4303 45.6666 37.964 45.4735 37.6201 45.1297L36.3238 43.8333H25.1665C24.154 43.8333 23.3332 44.6541 23.3332 45.6666V53C23.3332 54.0125 22.5124 54.8333 21.4998 54.8333C20.4873 54.8333 19.6665 54.0125 19.6665 53V23.6666C19.6665 20.6291 22.1289 18.1666 25.1665 18.1666H37.0832C37.5694 18.1666 38.0357 18.3598 38.3795 18.7036L39.2952 19.6193C39.2959 19.6199 39.2965 19.6206 39.2972 19.6212L39.6759 20Z" fill="url(#paint0_linear_939_40646)"/>
</g>
<defs>
<filter id="filter0_dd_939_40646" x="0" y="0" width="75" height="75" filterUnits="userSpaceOnUse" color-interpolation-filters="sRGB">
<feFlood flood-opacity="0" result="BackgroundImageFix"/>
<feColorMatrix in="SourceAlpha" type="matrix" values="0 0 0 0 0 0 0 0 0 0 0 0 0 0 0 0 0 0 127 0" result="hardAlpha"/>
<feOffset dy="1"/>
<feGaussianBlur stdDeviation="1"/>
<feColorMatrix type="matrix" values="0 0 0 0 0 0 0 0 0 0 0 0 0 0 0 0 0 0 0.06 0"/>
<feBlend mode="normal" in2="BackgroundImageFix" result="effect1_dropShadow_939_40646"/>
<feColorMatrix in="SourceAlpha" type="matrix" values="0 0 0 0 0 0 0 0 0 0 0 0 0 0 0 0 0 0 127 0" result="hardAlpha"/>
<feOffset dy="1"/>
<feGaussianBlur stdDeviation="1.5"/>
<feColorMatrix type="matrix" values="0 0 0 0 0 0 0 0 0 0 0 0 0 0 0 0 0 0 0.1 0"/>
<feBlend mode="normal" in2="effect1_dropShadow_939_40646" result="effect2_dropShadow_939_40646"/>
<feBlend mode="normal" in="SourceGraphic" in2="effect2_dropShadow_939_40646" result="shape"/>
</filter>
<linearGradient id="paint0_linear_939_40646" x1="37.9998" y1="18.1666" x2="37.9998" y2="54.8333" gradientUnits="userSpaceOnUse">
<stop stop-color="#F0B7DA"/>
<stop offset="1" stop-color="#6AD0F9"/>
</linearGradient>
</defs>
</svg>
