<svg width="76" height="75" viewBox="0 0 76 75" fill="none" xmlns="http://www.w3.org/2000/svg">
<g filter="url(#filter0_dd_1005_40742)">
<rect x="3.5" y="2" width="69" height="69" rx="20" fill="white"/>
<path d="M28.5806 58.047L29.2701 58.2992C33.0505 59.5537 37.1456 59.6299 40.9736 58.5169C44.8016 57.404 48.1678 55.1585 50.5939 52.0994C53.02 49.0404 54.3827 45.3234 54.4883 41.4766C54.5939 37.6297 53.4371 33.8487 51.1823 30.6707C49.7179 31.8536 47.9195 32.5884 46.018 32.7806C44.6071 32.9359 43.2191 33.2454 41.881 33.7029C40.8467 36.4366 38.4749 38.4337 35.2205 39.5683C33.8825 40.0266 32.4945 40.336 31.0835 40.4906C29.1788 40.6787 27.377 41.4139 25.9123 42.6005C20.9203 46.6944 21.2996 55.32 28.5806 58.047Z" fill="#98CFE2"/>
<path fill-rule="evenodd" clip-rule="evenodd" d="M52.477 32.7878C52.0968 32.058 51.6647 31.3505 51.1823 30.6707C49.7179 31.8536 47.9195 32.5884 46.018 32.7806C44.6071 32.9359 43.2191 33.2454 41.881 33.7029C40.8467 36.4366 38.4749 38.4337 35.2205 39.5683C33.8825 40.0266 32.4945 40.336 31.0835 40.4906C29.1788 40.6787 27.377 41.4139 25.9123 42.6005C22.0147 45.7969 21.3914 51.7559 24.771 55.513C28.813 56.8011 33.1948 56.8992 37.3412 55.7474C42.705 54.2574 47.2437 50.7954 49.9756 46.1101C51.631 43.2718 52.5685 40.0982 52.7122 36.8464C52.7724 35.4848 52.6927 34.1255 52.477 32.7878Z" fill="url(#paint0_linear_1005_40742)"/>
<path fill-rule="evenodd" clip-rule="evenodd" d="M51.7909 31.5852C51.598 31.2753 51.3951 30.9702 51.1825 30.6705C49.7181 31.8535 47.9197 32.5883 46.0182 32.7805C44.6073 32.9358 43.2193 33.2452 41.8812 33.7028C40.8469 36.4364 38.4751 38.4336 35.2207 39.5682C33.8827 40.0265 32.4947 40.3359 31.0837 40.4905C29.179 40.6786 27.3772 41.4138 25.9125 42.6004C23.8877 44.2609 22.7465 46.6671 22.5912 49.1227C23.4523 49.3704 24.3321 49.5698 25.2268 49.7184C31.1425 50.7012 37.2217 49.3846 42.1294 46.0576C45.1289 44.043 47.5979 41.382 49.3396 38.2867C50.5223 36.185 51.3474 33.9225 51.7909 31.5852Z" fill="url(#paint1_linear_1005_40742)"/>
<path d="M48.4038 15.2374L47.6798 14.9852C43.9015 13.7416 39.8123 13.6736 35.9916 14.791C32.171 15.9084 28.8126 18.1544 26.3923 21.2109C23.972 24.2674 22.6126 27.9793 22.5067 31.8207C22.4008 35.662 23.5537 39.4381 25.8022 42.6138C27.2685 41.4296 29.0694 40.6948 30.9734 40.5038C32.3844 40.3492 33.7724 40.0398 35.1103 39.5815C36.1446 36.8479 38.5164 34.8507 41.764 33.7161C43.1021 33.2585 44.49 32.9491 45.9009 32.7938C47.8032 32.6044 49.6024 31.8693 51.0653 30.6839C56.0641 26.59 55.6849 17.9644 48.4038 15.2374Z" fill="#FFAFCC"/>
<path fill-rule="evenodd" clip-rule="evenodd" d="M52.2098 17.7674C48.1708 16.4826 43.793 16.3855 39.6502 17.5364C34.2864 19.0264 29.7477 22.4884 27.0157 27.1737C25.3596 30.0196 24.4241 33.2013 24.2852 36.4603C24.2269 37.8263 24.3093 39.1898 24.5283 40.5313C24.9033 41.2488 25.3284 41.9447 25.8022 42.6138C27.2685 41.4297 29.0695 40.6948 30.9735 40.5039C32.3845 40.3493 33.7725 40.0399 35.1104 39.5816C36.1447 36.8479 38.5165 34.8508 41.7641 33.7162C43.1022 33.2586 44.4901 32.9492 45.901 32.7939C47.8033 32.6045 49.6025 31.8694 51.0653 30.6839C54.9697 27.4864 55.5932 21.5243 52.2098 17.7674Z" fill="url(#paint2_linear_1005_40742)"/>
<path fill-rule="evenodd" clip-rule="evenodd" d="M54.3913 24.1675C53.5231 23.9169 52.6358 23.7154 51.7333 23.5655C45.8165 22.5827 39.7362 23.8996 34.8274 27.2269C31.8367 29.2469 29.3766 31.91 27.6423 35.0048C26.4634 37.1086 25.6419 39.3725 25.202 41.7106C25.3924 42.0166 25.5924 42.3178 25.8019 42.6138C27.2682 41.4296 29.0692 40.6948 30.9732 40.5038C32.3842 40.3492 33.7722 40.0398 35.1101 39.5815C36.1444 36.8479 38.5162 34.8507 41.7638 33.7161C43.1019 33.2586 44.4898 32.9491 45.9007 32.7938C47.803 32.6044 49.6022 31.8693 51.065 30.6839C53.091 29.0247 54.2336 26.6211 54.3913 24.1675Z" fill="url(#paint3_linear_1005_40742)"/>
</g>
<defs>
<filter id="filter0_dd_1005_40742" x="0.5" y="0" width="75" height="75" filterUnits="userSpaceOnUse" color-interpolation-filters="sRGB">
<feFlood flood-opacity="0" result="BackgroundImageFix"/>
<feColorMatrix in="SourceAlpha" type="matrix" values="0 0 0 0 0 0 0 0 0 0 0 0 0 0 0 0 0 0 127 0" result="hardAlpha"/>
<feOffset dy="1"/>
<feGaussianBlur stdDeviation="1"/>
<feColorMatrix type="matrix" values="0 0 0 0 0 0 0 0 0 0 0 0 0 0 0 0 0 0 0.06 0"/>
<feBlend mode="normal" in2="BackgroundImageFix" result="effect1_dropShadow_1005_40742"/>
<feColorMatrix in="SourceAlpha" type="matrix" values="0 0 0 0 0 0 0 0 0 0 0 0 0 0 0 0 0 0 127 0" result="hardAlpha"/>
<feOffset dy="1"/>
<feGaussianBlur stdDeviation="1.5"/>
<feColorMatrix type="matrix" values="0 0 0 0 0 0 0 0 0 0 0 0 0 0 0 0 0 0 0.1 0"/>
<feBlend mode="normal" in2="effect1_dropShadow_1005_40742" result="effect2_dropShadow_1005_40742"/>
<feBlend mode="normal" in="SourceGraphic" in2="effect2_dropShadow_1005_40742" result="shape"/>
</filter>
<linearGradient id="paint0_linear_1005_40742" x1="31.7316" y1="39.628" x2="59.6613" y2="34.347" gradientUnits="userSpaceOnUse">
<stop stop-color="#98CFE2"/>
<stop offset="1" stop-color="white"/>
</linearGradient>
<linearGradient id="paint1_linear_1005_40742" x1="31.3871" y1="30.6705" x2="53.2355" y2="36.4598" gradientUnits="userSpaceOnUse">
<stop stop-color="#98CFE2"/>
<stop offset="1" stop-color="white"/>
</linearGradient>
<linearGradient id="paint2_linear_1005_40742" x1="16.014" y1="29.8254" x2="38.9347" y2="28.3881" gradientUnits="userSpaceOnUse">
<stop stop-color="white"/>
<stop offset="1" stop-color="#FFAFCC"/>
</linearGradient>
<linearGradient id="paint3_linear_1005_40742" x1="22.4234" y1="27.0213" x2="47.191" y2="36.4529" gradientUnits="userSpaceOnUse">
<stop stop-color="white"/>
<stop offset="1" stop-color="#FFAFCC"/>
</linearGradient>
</defs>
</svg>
