<svg width="75" height="75" viewBox="0 0 75 75" fill="none" xmlns="http://www.w3.org/2000/svg">
<g filter="url(#filter0_dd_517_36497)">
<rect x="3" y="2" width="69" height="69" rx="20" fill="white"/>
<path fill-rule="evenodd" clip-rule="evenodd" d="M36.8249 18.5709C37.5523 17.9857 38.6034 18.0406 39.2659 18.6984C40.9723 20.3929 42.7202 21.5811 44.4903 22.7488C44.6037 22.8236 44.7176 22.8986 44.8319 22.9738C46.463 24.0473 48.1775 25.1757 49.6673 26.6654C52.8887 29.8869 54.5 34.1128 54.5 38.3327C54.5 42.5526 52.8887 46.7785 49.6673 49.9999C43.2236 56.4436 32.7764 56.4436 26.3327 49.9999C23.1113 46.7785 21.5 42.5526 21.5 38.3327C21.5 34.1128 23.1113 29.8869 26.3327 26.6654C26.7692 26.2289 27.396 26.0414 28.0004 26.1664C28.6003 26.2905 29.0982 26.7058 29.3281 27.2729L29.3289 27.2748L29.3298 27.2771L29.3314 27.281M37.967 22.4934C35.0289 25.5932 34.3334 29.7544 34.3334 32.8326C34.3334 33.468 34.0044 34.0581 33.4639 34.3921C32.9234 34.7262 32.2485 34.7566 31.6802 34.4724C29.6929 33.4788 28.3213 32.1762 27.4216 31.0625C25.9181 33.2441 25.1667 35.7866 25.1667 38.3327C25.1667 41.6199 26.4192 44.901 28.9255 47.4072C33.9372 52.4189 42.0628 52.4189 47.0745 47.4072C49.5808 44.901 50.8333 41.6199 50.8333 38.3327C50.8333 35.0455 49.5808 31.7644 47.0745 29.2581C45.8585 28.0421 44.4388 27.1063 42.7276 25.9785C42.6429 25.9227 42.5574 25.8663 42.4713 25.8095C41.0687 24.8843 39.5259 23.8491 37.967 22.4934ZM36.29 34.0786C36.5429 33.3308 37.2461 32.8289 38.0355 32.8327C39.8977 32.8417 41.763 33.558 43.1854 34.9805C44.617 36.4121 45.3334 38.2921 45.3333 40.166C45.3333 42.0399 44.617 43.9198 43.1854 45.3514C40.3216 48.2152 35.6784 48.2152 32.8146 45.3514C31.383 43.9198 30.6667 42.0399 30.6667 40.166C30.6667 39.1535 31.4874 38.3327 32.5 38.3327L34.8513 38.3326L36.29 34.0786ZM39.2662 36.7234L37.9033 40.7533C37.6514 41.498 36.9528 41.9992 36.1666 41.9992L34.8231 41.9993C34.9801 42.2706 35.1748 42.5262 35.4073 42.7587C36.8392 44.1906 39.1608 44.1906 40.5927 42.7587C41.309 42.0424 41.6667 41.1072 41.6667 40.166C41.6667 39.2247 41.3091 38.2895 40.5927 37.5732C40.2037 37.1842 39.7502 36.901 39.2662 36.7234Z" fill="url(#paint0_linear_517_36497)"/>
</g>
<defs>
<filter id="filter0_dd_517_36497" x="0" y="0" width="75" height="75" filterUnits="userSpaceOnUse" color-interpolation-filters="sRGB">
<feFlood flood-opacity="0" result="BackgroundImageFix"/>
<feColorMatrix in="SourceAlpha" type="matrix" values="0 0 0 0 0 0 0 0 0 0 0 0 0 0 0 0 0 0 127 0" result="hardAlpha"/>
<feOffset dy="1"/>
<feGaussianBlur stdDeviation="1"/>
<feColorMatrix type="matrix" values="0 0 0 0 0 0 0 0 0 0 0 0 0 0 0 0 0 0 0.06 0"/>
<feBlend mode="normal" in2="BackgroundImageFix" result="effect1_dropShadow_517_36497"/>
<feColorMatrix in="SourceAlpha" type="matrix" values="0 0 0 0 0 0 0 0 0 0 0 0 0 0 0 0 0 0 127 0" result="hardAlpha"/>
<feOffset dy="1"/>
<feGaussianBlur stdDeviation="1.5"/>
<feColorMatrix type="matrix" values="0 0 0 0 0 0 0 0 0 0 0 0 0 0 0 0 0 0 0.1 0"/>
<feBlend mode="normal" in2="effect1_dropShadow_517_36497" result="effect2_dropShadow_517_36497"/>
<feBlend mode="normal" in="SourceGraphic" in2="effect2_dropShadow_517_36497" result="shape"/>
</filter>
<linearGradient id="paint0_linear_517_36497" x1="38" y1="18.166" x2="38" y2="54.8327" gradientUnits="userSpaceOnUse">
<stop stop-color="#F0B7DA"/>
<stop offset="1" stop-color="#6AD0F9"/>
</linearGradient>
</defs>
</svg>
