<svg width="104" height="32" viewBox="0 0 104 32" fill="none" xmlns="http://www.w3.org/2000/svg">
<path d="M41.4572 11.9922C40.8647 11.583 40.1673 11.369 39.456 11.3782C39.2068 11.3617 38.9569 11.3976 38.7212 11.4837C38.4855 11.5698 38.2689 11.7043 38.0843 11.8792C37.8997 12.0541 37.7508 12.2659 37.6465 12.502C37.5423 12.738 37.4847 12.9934 37.4774 13.253C37.4774 15.231 41.4077 15.0154 41.4077 18.2729C41.4077 21.0524 39.3028 23.6444 35.1697 23.6444C34.9533 23.6444 34.7189 23.6444 34.5251 23.6162C34.1439 23.5804 33.7777 23.4441 33.4611 23.2203C33.1445 22.9964 32.888 22.6924 32.7157 22.3369C32.5434 21.9814 32.4611 21.5861 32.4764 21.1884C32.4917 20.7906 32.6043 20.4034 32.8034 20.0634C33.4901 20.5273 34.2971 20.7612 35.1156 20.7337C35.3816 20.7508 35.6481 20.7119 35.8994 20.6195C36.1506 20.5271 36.3814 20.3829 36.5779 20.1957C36.7743 20.0084 36.9325 19.7819 37.0429 19.5297C37.1533 19.2774 37.2137 19.0046 37.2205 18.7276C37.2205 16.7262 33.5471 17.1012 33.5471 13.7639C33.5471 11.2516 35.5257 8.71592 39.0684 8.71592C40.3938 8.66765 41.7019 9.04042 42.8184 9.78458L41.4572 11.9922Z" fill="black"/>
<path d="M52.4594 29.1189C51.9772 29.1186 51.5011 29.0068 51.0655 28.7917C50.6299 28.5765 50.2458 28.2634 49.9408 27.875C49.6358 27.4865 49.4177 27.0324 49.3022 26.5456C49.1867 26.0587 49.1766 25.5513 49.2728 25.0599L49.6604 23.0819C48.8738 23.4336 48.024 23.6061 47.1679 23.5881C44.112 23.5881 42.6246 21.3711 42.6246 18.4886C42.6915 16.1236 43.4233 13.8309 44.7295 11.8938C46.1944 9.8877 48.3759 8.71592 51.4904 8.71592C53.159 8.67623 54.8135 9.04216 56.3221 9.78458L52.4594 29.1189ZM50.8143 11.1204C49.5838 11.1204 48.6057 11.8657 47.862 13.2812C47.087 14.9177 46.6567 16.7074 46.6 18.5307C46.6 20.2134 47.2445 21.0711 48.6283 21.0711C49.1584 21.0787 49.6839 20.9684 50.1697 20.7477L52.0087 11.3079C51.6298 11.156 51.2243 11.089 50.8188 11.111L50.8143 11.1204Z" fill="black"/>
<path d="M69.9249 23.3678H66.202L65.7918 15.5685C65.7666 14.8996 65.7998 14.2297 65.891 13.5671H65.8414C65.6802 14.2546 65.4569 14.9247 65.1743 15.5685L61.5685 23.3678H57.8996L56.9666 8.96434H60.8654V17.2418C60.8662 17.9572 60.815 18.6717 60.7121 19.3791H60.7662C60.9463 18.6431 61.1954 17.9272 61.5099 17.2418L65.278 8.96434H68.5638L68.8973 17.2418C68.9218 17.9552 68.8962 18.6695 68.8207 19.3791H68.8702C69.0453 18.6608 69.2682 17.956 69.5373 17.2699L72.9538 8.96434H76.5596L69.9249 23.3678Z" fill="black"/>
<path d="M86.7955 22.557C85.104 23.3213 83.2707 23.6862 81.4274 23.6256C77.781 23.6256 75.7257 21.5961 75.7257 18.2542C75.7459 15.8523 76.511 13.5213 77.9072 11.6079C79.3721 9.76584 81.513 8.69717 84.4833 8.69717C86.4845 8.69717 88.337 9.16589 89.3376 9.76584L86.7955 22.557ZM83.8388 11.1017C82.6353 11.1017 81.6302 11.8469 80.8865 13.2343C80.1294 14.7846 79.718 16.4924 79.6831 18.2308C79.6831 19.9931 80.3502 20.9821 81.8376 20.9821C82.2993 20.9943 82.7588 20.9114 83.1897 20.7384L85.0422 11.3641C84.6655 11.1835 84.2534 11.0968 83.8388 11.111V11.1017Z" fill="black"/>
<path d="M100.714 22.557C99.0239 23.3209 97.1921 23.6859 95.3502 23.6256C91.9833 23.6256 89.6486 21.7789 89.6486 18.2308C89.6837 15.9 90.4006 13.6357 91.7039 11.7391C92.3601 10.8047 93.2226 10.0478 94.2187 9.53231C95.2149 9.0168 96.3155 8.75771 97.4281 8.77686C98.1037 8.76728 98.7778 8.84761 99.4338 9.0159L100.741 2.39301C101.225 2.39293 101.703 2.50507 102.141 2.72126C102.578 2.93745 102.963 3.25226 103.269 3.6428C103.575 4.03335 103.793 4.4898 103.907 4.97898C104.022 5.46817 104.03 5.97779 103.932 6.47079L100.714 22.557ZM97.9419 11.1017C96.5537 11.1017 95.5531 11.875 94.8364 13.2109C94.0666 14.7662 93.6445 16.4821 93.6014 18.2308C93.6014 19.9931 94.246 20.9821 95.7604 20.9821C96.2229 21.0063 96.6848 20.923 97.1126 20.7384L99.0146 11.261C98.6672 11.1509 98.3049 11.1002 97.9419 11.111V11.1017Z" fill="black"/>
<path d="M3.97496 31.1154L4.42568 31.2935C6.89694 32.1797 9.57391 32.2335 12.0763 31.4473C14.5786 30.6611 16.7791 29.0749 18.3651 26.9139C19.951 24.753 20.8418 22.1273 20.9108 19.4098C20.9799 16.6924 20.2237 14.0214 18.7497 11.7764C17.7924 12.612 16.6168 13.1311 15.3737 13.2669C14.4514 13.3766 13.5442 13.5952 12.6694 13.9184C11.9933 15.8495 10.4428 17.2603 8.31542 18.0618C7.44082 18.3855 6.53347 18.6041 5.61108 18.7133C4.366 18.8462 3.18815 19.3655 2.23065 20.2038C-1.03258 23.0957 -0.784683 29.189 3.97496 31.1154Z" fill="#98CFE2"/>
<path fill-rule="evenodd" clip-rule="evenodd" d="M19.5961 13.272C19.3475 12.7564 19.065 12.2566 18.7497 11.7764C17.7924 12.612 16.6168 13.1311 15.3737 13.2669C14.4514 13.3766 13.5441 13.5952 12.6694 13.9184C11.9933 15.8495 10.4428 17.2603 8.31541 18.0618C7.44081 18.3855 6.53347 18.6041 5.61107 18.7133C4.36599 18.8462 3.18815 19.3655 2.23065 20.2038C-0.317234 22.4618 -0.724637 26.6714 1.4847 29.3254C4.1269 30.2353 6.99127 30.3047 9.70177 29.491C13.2081 28.4384 16.175 25.9928 17.9609 22.6831C19.043 20.6781 19.6558 18.4362 19.7498 16.1391C19.7891 15.1772 19.737 14.217 19.5961 13.272Z" fill="url(#paint0_linear_929_40586)"/>
<path fill-rule="evenodd" clip-rule="evenodd" d="M19.1474 12.4225C19.0213 12.2036 18.8887 11.9881 18.7497 11.7764C17.7924 12.612 16.6168 13.1311 15.3737 13.2669C14.4514 13.3766 13.5441 13.5952 12.6694 13.9184C11.9933 15.8495 10.4428 17.2603 8.31541 18.0618C7.44082 18.3855 6.53347 18.6041 5.61108 18.7133C4.36599 18.8462 3.18815 19.3655 2.23065 20.2038C0.907049 21.3768 0.1611 23.0765 0.0595703 24.8112C0.622438 24.9861 1.1976 25.127 1.78243 25.232C5.64952 25.9262 9.62349 24.9961 12.8317 22.6459C14.7925 21.2228 16.4065 19.343 17.545 17.1565C18.3181 15.6718 18.8575 14.0736 19.1474 12.4225Z" fill="url(#paint1_linear_929_40586)"/>
<path d="M16.9333 0.874093L16.4601 0.69598C13.9902 -0.182556 11.3171 -0.230556 8.8195 0.558777C6.32192 1.34811 4.12653 2.93474 2.54439 5.09387C0.96226 7.25301 0.0736163 9.87514 0.00437724 12.5887C-0.0648618 15.3023 0.688816 17.9698 2.15862 20.2131C3.11714 19.3766 4.29445 18.8575 5.53904 18.7226C6.46143 18.6134 7.36878 18.3948 8.24338 18.0711C8.91947 16.14 10.47 14.7292 12.5929 13.9277C13.4676 13.6045 14.3749 13.3859 15.2972 13.2762C16.5407 13.1424 17.7169 12.6231 18.6731 11.7857C21.9409 8.89374 21.693 2.8005 16.9333 0.874093Z" fill="#FFAFCC"/>
<path fill-rule="evenodd" clip-rule="evenodd" d="M19.4213 2.66137C16.781 1.75369 13.9192 1.68516 11.211 2.49812C7.70467 3.55069 4.73772 5.99631 2.95187 9.30603C1.86926 11.3165 1.25772 13.564 1.16688 15.8663C1.12881 16.8312 1.18265 17.7943 1.32582 18.742C1.57095 19.2488 1.84887 19.7404 2.15859 20.2131C3.11712 19.3766 4.29442 18.8575 5.53902 18.7226C6.46141 18.6134 7.36876 18.3948 8.24336 18.0711C8.91944 16.14 10.4699 14.7292 12.5928 13.9277C13.4676 13.6045 14.3749 13.3859 15.2972 13.2762C16.5407 13.1423 17.7168 12.6231 18.6731 11.7857C21.2254 9.52692 21.633 5.31526 19.4213 2.66137Z" fill="url(#paint2_linear_929_40586)"/>
<path fill-rule="evenodd" clip-rule="evenodd" d="M20.8475 7.1825C20.2799 7.00544 19.6998 6.86309 19.1099 6.75721C15.2421 6.06297 11.2674 6.99319 8.05853 9.34365C6.1035 10.7706 4.4953 12.6518 3.3616 14.8381C2.59093 16.3242 2.05397 17.9234 1.76636 19.5751C1.89081 19.7913 2.02158 20.004 2.15856 20.2131C3.11708 19.3766 4.29439 18.8575 5.53898 18.7226C6.46138 18.6134 7.36873 18.3948 8.24332 18.0711C8.91941 16.14 10.4699 14.7292 12.5928 13.9277C13.4675 13.6045 14.3748 13.3859 15.2971 13.2762C16.5407 13.1424 17.7168 12.6231 18.6731 11.7857C19.9974 10.6136 20.7443 8.91573 20.8475 7.1825Z" fill="url(#paint3_linear_929_40586)"/>
<defs>
<linearGradient id="paint0_linear_929_40586" x1="6.03476" y1="18.104" x2="24.3834" y2="14.8934" gradientUnits="userSpaceOnUse">
<stop stop-color="#98CFE2"/>
<stop offset="1" stop-color="white"/>
</linearGradient>
<linearGradient id="paint1_linear_929_40586" x1="5.8094" y1="11.7764" x2="20.2276" y2="15.3118" gradientUnits="userSpaceOnUse">
<stop stop-color="#98CFE2"/>
<stop offset="1" stop-color="white"/>
</linearGradient>
<linearGradient id="paint2_linear_929_40586" x1="-4.24" y1="11.1792" x2="10.7517" y2="10.3093" gradientUnits="userSpaceOnUse">
<stop stop-color="white"/>
<stop offset="1" stop-color="#FFAFCC"/>
</linearGradient>
<linearGradient id="paint3_linear_929_40586" x1="-0.0499848" y1="9.19845" x2="16.4406" y2="15.0096" gradientUnits="userSpaceOnUse">
<stop stop-color="white"/>
<stop offset="1" stop-color="#FFAFCC"/>
</linearGradient>
</defs>
</svg>
