<svg width="75" height="75" viewBox="0 0 75 75" fill="none" xmlns="http://www.w3.org/2000/svg">
<g filter="url(#filter0_dd_1862_66195)">
<rect x="3" y="2" width="69" height="69" rx="20" fill="white"/>
<path fill-rule="evenodd" clip-rule="evenodd" d="M25.167 18.1667C26.1795 18.1667 27.0003 18.9875 27.0003 20V21.8333H28.8337C29.8462 21.8333 30.667 22.6541 30.667 23.6667C30.667 24.6792 29.8462 25.5 28.8337 25.5H27.0003V27.3333C27.0003 28.3458 26.1795 29.1667 25.167 29.1667C24.1545 29.1667 23.3337 28.3458 23.3337 27.3333V25.5H21.5003C20.4878 25.5 19.667 24.6792 19.667 23.6667C19.667 22.6541 20.4878 21.8333 21.5003 21.8333H23.3337V20C23.3337 18.9875 24.1545 18.1667 25.167 18.1667ZM39.8337 18.1667C40.6228 18.1667 41.3234 18.6716 41.5729 19.4202L45.4868 31.1619L55.1441 34.7834C55.8596 35.0517 56.3337 35.7358 56.3337 36.5C56.3337 37.2642 55.8596 37.9483 55.1441 38.2166L45.4868 41.8381L41.5729 53.5797C41.3234 54.3284 40.6228 54.8333 39.8337 54.8333C39.0445 54.8333 38.3439 54.3284 38.0944 53.5797L34.1805 41.8381L24.5233 38.2166C23.8077 37.9483 23.3337 37.2642 23.3337 36.5C23.3337 35.7358 23.8077 35.0517 24.5233 34.7834L34.1805 31.1619L38.0944 19.4202C38.3439 18.6716 39.0445 18.1667 39.8337 18.1667ZM39.8337 25.7975L37.3824 33.1512C37.2075 33.676 36.8049 34.0938 36.2869 34.288L30.3883 36.5L36.2869 38.712C36.8049 38.9062 37.2075 39.324 37.3824 39.8488L39.8337 47.2025L42.2849 39.8488C42.4598 39.324 42.8624 38.9062 43.3804 38.712L49.279 36.5L43.3804 34.288C42.8624 34.0938 42.4598 33.676 42.2849 33.1512L39.8337 25.7975ZM27.0003 43.8333C28.0128 43.8333 28.8337 44.6541 28.8337 45.6667V47.5H30.667C31.6795 47.5 32.5003 48.3208 32.5003 49.3333C32.5003 50.3458 31.6795 51.1667 30.667 51.1667H28.8337V53C28.8337 54.0125 28.0128 54.8333 27.0003 54.8333C25.9878 54.8333 25.167 54.0125 25.167 53V51.1667H23.3337C22.3211 51.1667 21.5003 50.3458 21.5003 49.3333C21.5003 48.3208 22.3211 47.5 23.3337 47.5H25.167V45.6667C25.167 44.6541 25.9878 43.8333 27.0003 43.8333Z" fill="url(#paint0_linear_1862_66195)"/>
</g>
<defs>
<filter id="filter0_dd_1862_66195" x="0" y="0" width="75" height="75" filterUnits="userSpaceOnUse" color-interpolation-filters="sRGB">
<feFlood flood-opacity="0" result="BackgroundImageFix"/>
<feColorMatrix in="SourceAlpha" type="matrix" values="0 0 0 0 0 0 0 0 0 0 0 0 0 0 0 0 0 0 127 0" result="hardAlpha"/>
<feOffset dy="1"/>
<feGaussianBlur stdDeviation="1"/>
<feColorMatrix type="matrix" values="0 0 0 0 0 0 0 0 0 0 0 0 0 0 0 0 0 0 0.06 0"/>
<feBlend mode="normal" in2="BackgroundImageFix" result="effect1_dropShadow_1862_66195"/>
<feColorMatrix in="SourceAlpha" type="matrix" values="0 0 0 0 0 0 0 0 0 0 0 0 0 0 0 0 0 0 127 0" result="hardAlpha"/>
<feOffset dy="1"/>
<feGaussianBlur stdDeviation="1.5"/>
<feColorMatrix type="matrix" values="0 0 0 0 0 0 0 0 0 0 0 0 0 0 0 0 0 0 0.1 0"/>
<feBlend mode="normal" in2="effect1_dropShadow_1862_66195" result="effect2_dropShadow_1862_66195"/>
<feBlend mode="normal" in="SourceGraphic" in2="effect2_dropShadow_1862_66195" result="shape"/>
</filter>
<linearGradient id="paint0_linear_1862_66195" x1="38.0003" y1="18.1667" x2="38.0003" y2="54.8333" gradientUnits="userSpaceOnUse">
<stop stop-color="#F0B7DA"/>
<stop offset="1" stop-color="#6AD0F9"/>
</linearGradient>
</defs>
</svg>
