<svg width="20" height="16" viewBox="0 0 20 16" fill="none" xmlns="http://www.w3.org/2000/svg">
<path fill-rule="evenodd" clip-rule="evenodd" d="M0 3C0 1.34315 1.34315 0 3 0H13C14.6569 0 16 1.34315 16 3V4H17C18.6569 4 20 5.34315 20 7V13C20 14.6569 18.6569 16 17 16H7C5.34315 16 4 14.6569 4 13V12H3C1.34315 12 0 10.6569 0 9V3ZM6 13C6 13.5523 6.44772 14 7 14H17C17.5523 14 18 13.5523 18 13V7C18 6.44772 17.5523 6 17 6H7C6.44772 6 6 6.44772 6 7V13ZM14 4H7C5.34315 4 4 5.34315 4 7V10H3C2.44772 10 2 9.55228 2 9V3C2 2.44772 2.44772 2 3 2H13C13.5523 2 14 2.44772 14 3V4ZM12 9C11.4477 9 11 9.44771 11 10C11 10.5523 11.4477 11 12 11C12.5523 11 13 10.5523 13 10C13 9.44771 12.5523 9 12 9ZM9 10C9 8.34315 10.3431 7 12 7C13.6569 7 15 8.34315 15 10C15 11.6569 13.6569 13 12 13C10.3431 13 9 11.6569 9 10Z" fill="#6B7280"/>
</svg>
