<svg width="75" height="75" viewBox="0 0 75 75" fill="none" xmlns="http://www.w3.org/2000/svg">
<g filter="url(#filter0_dd_939_40711)">
<rect x="3" y="2" width="69" height="69" rx="20" fill="white"/>
<path fill-rule="evenodd" clip-rule="evenodd" d="M37.9999 23.6667C35.9749 23.6667 34.3333 25.3083 34.3333 27.3333C34.3333 29.3584 35.9749 31 37.9999 31C40.025 31 41.6666 29.3584 41.6666 27.3333C41.6666 25.3083 40.025 23.6667 37.9999 23.6667ZM30.6666 27.3333C30.6666 23.2832 33.9498 20 37.9999 20C42.05 20 45.3333 23.2832 45.3333 27.3333C45.3333 31.3834 42.05 34.6667 37.9999 34.6667C33.9498 34.6667 30.6666 31.3834 30.6666 27.3333ZM25.1666 31C24.1541 31 23.3333 31.8208 23.3333 32.8333C23.3333 33.8459 24.1541 34.6667 25.1666 34.6667C26.1791 34.6667 26.9999 33.8459 26.9999 32.8333C26.9999 31.8208 26.1791 31 25.1666 31ZM19.6666 32.8333C19.6666 29.7958 22.129 27.3333 25.1666 27.3333C28.2042 27.3333 30.6666 29.7958 30.6666 32.8333C30.6666 35.8709 28.2042 38.3333 25.1666 38.3333C22.129 38.3333 19.6666 35.8709 19.6666 32.8333ZM50.8333 31C49.8207 31 48.9999 31.8208 48.9999 32.8333C48.9999 33.8459 49.8207 34.6667 50.8333 34.6667C51.8458 34.6667 52.6666 33.8459 52.6666 32.8333C52.6666 31.8208 51.8458 31 50.8333 31ZM45.3333 32.8333C45.3333 29.7958 47.7957 27.3333 50.8333 27.3333C53.8708 27.3333 56.3333 29.7958 56.3333 32.8333C56.3333 35.8709 53.8708 38.3333 50.8333 38.3333C47.7957 38.3333 45.3333 35.8709 45.3333 32.8333ZM37.9999 40.1667C34.9152 40.1667 32.271 42.0719 31.1884 44.7766C30.8524 45.6162 30.6666 46.5341 30.6666 47.5V49.3333H45.3333V47.5C45.3333 46.5341 45.1475 45.6162 44.8114 44.7766C43.7288 42.0719 41.0846 40.1667 37.9999 40.1667ZM48.9999 49.3333H54.4999V47.5C54.4999 45.475 52.8583 43.8333 50.8333 43.8333C49.9971 43.8333 49.2267 44.1121 48.6089 44.5845C48.864 45.5145 48.9999 46.4925 48.9999 47.5V49.3333ZM47.0357 41.2257C45.0499 38.371 41.7449 36.5 37.9999 36.5C34.255 36.5 30.9499 38.371 28.9641 41.2257C27.8568 40.5542 26.5568 40.1667 25.1666 40.1667C21.1165 40.1667 17.8333 43.4499 17.8333 47.5V51.1667C17.8333 52.1792 18.6541 53 19.6666 53H56.3333C57.3458 53 58.1666 52.1792 58.1666 51.1667V47.5C58.1666 43.4499 54.8833 40.1667 50.8333 40.1667C49.4431 40.1667 48.143 40.5542 47.0357 41.2257ZM27.3909 44.5845C26.7732 44.1121 26.0027 43.8333 25.1666 43.8333C23.1415 43.8333 21.4999 45.475 21.4999 47.5V49.3333H26.9999V47.5C26.9999 46.4925 27.1358 45.5145 27.3909 44.5845Z" fill="url(#paint0_linear_939_40711)"/>
</g>
<defs>
<filter id="filter0_dd_939_40711" x="0" y="0" width="75" height="75" filterUnits="userSpaceOnUse" color-interpolation-filters="sRGB">
<feFlood flood-opacity="0" result="BackgroundImageFix"/>
<feColorMatrix in="SourceAlpha" type="matrix" values="0 0 0 0 0 0 0 0 0 0 0 0 0 0 0 0 0 0 127 0" result="hardAlpha"/>
<feOffset dy="1"/>
<feGaussianBlur stdDeviation="1"/>
<feColorMatrix type="matrix" values="0 0 0 0 0 0 0 0 0 0 0 0 0 0 0 0 0 0 0.06 0"/>
<feBlend mode="normal" in2="BackgroundImageFix" result="effect1_dropShadow_939_40711"/>
<feColorMatrix in="SourceAlpha" type="matrix" values="0 0 0 0 0 0 0 0 0 0 0 0 0 0 0 0 0 0 127 0" result="hardAlpha"/>
<feOffset dy="1"/>
<feGaussianBlur stdDeviation="1.5"/>
<feColorMatrix type="matrix" values="0 0 0 0 0 0 0 0 0 0 0 0 0 0 0 0 0 0 0.1 0"/>
<feBlend mode="normal" in2="effect1_dropShadow_939_40711" result="effect2_dropShadow_939_40711"/>
<feBlend mode="normal" in="SourceGraphic" in2="effect2_dropShadow_939_40711" result="shape"/>
</filter>
<linearGradient id="paint0_linear_939_40711" x1="37.9999" y1="20" x2="37.9999" y2="53" gradientUnits="userSpaceOnUse">
<stop stop-color="#F0B7DA"/>
<stop offset="1" stop-color="#6AD0F9"/>
</linearGradient>
</defs>
</svg>
