<svg width="32" height="46" viewBox="0 0 32 46" fill="none" xmlns="http://www.w3.org/2000/svg">
<path d="M6.08307 44.0473L6.77256 44.2994C10.553 45.5539 14.6481 45.6301 18.4761 44.5172C22.3041 43.4042 25.6702 41.1587 28.0964 38.0997C30.5225 35.0406 31.8852 31.3237 31.9908 27.4768C32.0964 23.63 30.9396 19.849 28.6847 16.6709C27.2203 17.8539 25.4219 18.5886 23.5204 18.7809C22.1095 18.9362 20.7216 19.2456 19.3834 19.7031C18.3492 22.4368 15.9773 24.434 12.7229 25.5686C11.385 26.0268 9.99696 26.3363 8.58593 26.4908C6.68126 26.679 4.87945 27.4142 3.41472 28.6008C-1.57723 32.6946 -1.198 41.3203 6.08307 44.0473Z" fill="#98CFE2"/>
<path fill-rule="evenodd" clip-rule="evenodd" d="M29.9795 18.7881C29.5992 18.0582 29.1671 17.3508 28.6847 16.6709C27.2203 17.8539 25.4219 18.5886 23.5204 18.7809C22.1095 18.9362 20.7216 19.2456 19.3834 19.7031C18.3492 22.4368 15.9773 24.434 12.7229 25.5686C11.385 26.0268 9.99696 26.3363 8.58593 26.4908C6.68126 26.679 4.87945 27.4142 3.41472 28.6008C-0.482862 31.7972 -1.10614 37.7561 2.27345 41.5132C6.31539 42.8013 10.6972 42.8995 14.8437 41.7477C20.2075 40.2576 24.7462 36.7956 27.4781 32.1104C29.1334 29.272 30.0709 26.0985 30.2146 22.8466C30.2748 21.4851 30.1951 20.1258 29.9795 18.7881Z" fill="url(#paint0_linear_3910_77117)"/>
<path fill-rule="evenodd" clip-rule="evenodd" d="M29.2934 17.5856C29.1005 17.2756 28.8976 16.9706 28.685 16.6709C27.2206 17.8539 25.4222 18.5886 23.5207 18.7809C22.1098 18.9362 20.7218 19.2456 19.3837 19.7031C18.3494 22.4368 15.9776 24.434 12.7232 25.5686C11.3852 26.0268 9.99722 26.3363 8.58618 26.4908C6.68151 26.679 4.87971 27.4142 3.41497 28.6008C1.39017 30.2613 0.249046 32.6674 0.09375 35.1231C0.95479 35.3708 1.83463 35.5701 2.72928 35.7188C8.64496 36.7016 14.7242 35.3849 19.6319 32.058C22.6314 30.0434 25.1004 27.3824 26.8421 24.2871C28.0248 22.1854 28.8499 19.9229 29.2934 17.5856Z" fill="url(#paint1_linear_3910_77117)"/>
<path d="M25.9062 1.23737L25.1823 0.985232C21.404 -0.258427 17.3148 -0.326375 13.4941 0.791007C9.67341 1.90839 6.31501 4.15443 3.89473 7.21091C1.47446 10.2674 0.115056 13.9793 0.0091375 17.8207C-0.0967811 21.662 1.05616 25.4381 3.30459 28.6138C4.7709 27.4296 6.57188 26.6948 8.47581 26.5038C9.88684 26.3492 11.2749 26.0398 12.6128 25.5815V25.5815C13.647 22.8479 16.0189 20.8507 19.2664 19.7161C20.6045 19.2585 21.9925 18.9491 23.4034 18.7938C25.3056 18.6044 27.1049 17.8693 28.5677 16.6839C33.5665 12.59 33.1873 3.96439 25.9062 1.23737Z" fill="#FFAFCC"/>
<path fill-rule="evenodd" clip-rule="evenodd" d="M29.7123 3.76744C25.6733 2.48256 21.2955 2.38555 17.1527 3.53637C11.7889 5.02639 7.25016 8.48842 4.51825 13.1737C2.86213 16.0196 1.92663 19.2013 1.78766 22.4603C1.72942 23.8263 1.81179 25.1898 2.03082 26.5313C2.4058 27.2488 2.83095 27.9447 3.30474 28.6138C4.77104 27.4297 6.57203 26.6948 8.47595 26.5039C9.88698 26.3493 11.275 26.0399 12.6129 25.5816C13.6472 22.8479 16.019 20.8508 19.2666 19.7162C20.6047 19.2586 21.9926 18.9492 23.4035 18.7939C25.3058 18.6045 27.105 17.8694 28.5678 16.6839C32.4722 13.4864 33.0957 7.52428 29.7123 3.76744Z" fill="url(#paint2_linear_3910_77117)"/>
<path fill-rule="evenodd" clip-rule="evenodd" d="M31.8937 10.168C31.0255 9.91733 30.1381 9.71582 29.2357 9.56593C23.3189 8.58316 17.2386 9.89999 12.3298 13.2273C9.33911 15.2473 6.87896 17.9104 5.14468 21.0052C3.96575 23.109 3.14432 25.3729 2.70435 27.7111C2.89474 28.017 3.09477 28.3182 3.30432 28.6142C4.77063 27.43 6.57162 26.6952 8.47554 26.5042C9.88657 26.3497 11.2746 26.0402 12.6125 25.582C13.6468 22.8483 16.0186 20.8511 19.2661 19.7165C20.6043 19.259 21.9922 18.9496 23.4031 18.7943C25.3054 18.6048 27.1046 17.8697 28.5674 16.6843C30.5934 15.0251 31.736 12.6216 31.8937 10.168Z" fill="url(#paint3_linear_3910_77117)"/>
<defs>
<linearGradient id="paint0_linear_3910_77117" x1="9.23405" y1="25.6282" x2="37.1637" y2="20.3472" gradientUnits="userSpaceOnUse">
<stop stop-color="#98CFE2"/>
<stop offset="1" stop-color="white"/>
</linearGradient>
<linearGradient id="paint1_linear_3910_77117" x1="8.88956" y1="16.6709" x2="30.738" y2="22.4602" gradientUnits="userSpaceOnUse">
<stop stop-color="#98CFE2"/>
<stop offset="1" stop-color="white"/>
</linearGradient>
<linearGradient id="paint2_linear_3910_77117" x1="-6.48354" y1="15.8254" x2="16.4372" y2="14.3881" gradientUnits="userSpaceOnUse">
<stop stop-color="white"/>
<stop offset="1" stop-color="#FFAFCC"/>
</linearGradient>
<linearGradient id="paint3_linear_3910_77117" x1="-0.0742095" y1="13.0218" x2="24.6934" y2="22.4534" gradientUnits="userSpaceOnUse">
<stop stop-color="white"/>
<stop offset="1" stop-color="#FFAFCC"/>
</linearGradient>
</defs>
</svg>
