<svg width="75" height="75" viewBox="0 0 75 75" fill="none" xmlns="http://www.w3.org/2000/svg">
<g filter="url(#filter0_dd_2187_55234)">
<rect x="3" y="2" width="69" height="69" rx="20" fill="white"/>
<path fill-rule="evenodd" clip-rule="evenodd" d="M49.6436 18.2835C50.3589 18.552 50.8327 19.2359 50.8327 19.9999V25.731C53.9956 26.545 56.3327 29.4162 56.3327 32.8333C56.3327 36.2503 53.9956 39.1215 50.8327 39.9356V45.6666C50.8327 46.4306 50.3589 47.1145 49.6436 47.383C48.9283 47.6515 48.1215 47.4482 47.6188 46.8729C46.495 45.5869 44.5048 44.3528 41.7736 43.4416C40.6164 43.0556 39.3502 42.7358 37.9993 42.4963V49.7736C37.9993 52.568 35.7341 54.8333 32.9397 54.8333C30.8014 54.8333 28.894 53.4891 28.1748 51.4753L28.1703 51.4629L24.485 40.9048C21.6182 39.3576 19.666 36.3252 19.666 32.8332C19.666 27.7706 23.7701 23.6666 28.8327 23.6666H32.1915C33.4825 23.6666 34.7363 23.5965 35.9386 23.4646C35.9545 23.4626 35.9704 23.4608 35.9864 23.4593C38.1024 23.224 40.0577 22.7973 41.7736 22.2249C44.5048 21.3137 46.495 20.0796 47.6188 18.7936C48.1215 18.2183 48.9283 18.015 49.6436 18.2835ZM34.3327 27.2743C33.6285 27.3133 32.9141 27.3333 32.1915 27.3333H28.8327C25.7951 27.3333 23.3327 29.7957 23.3327 32.8332C23.3327 35.1051 24.7105 37.0593 26.6834 37.898C27.3413 38.1776 28.0664 38.3332 28.8326 38.3332L32.1915 38.3333C32.9141 38.3333 33.6285 38.3532 34.3327 38.3922V27.2743ZM37.9993 38.7788V26.8877C39.7559 26.6106 41.4137 26.2102 42.9339 25.7031C44.4734 25.1895 45.9055 24.5549 47.166 23.8056L47.166 41.861C45.9055 41.1116 44.4734 40.477 42.9339 39.9634C41.4137 39.4563 39.7559 39.0559 37.9993 38.7788ZM50.8327 36.0094C51.9287 35.3754 52.666 34.1904 52.666 32.8333C52.666 31.4761 51.9286 30.2911 50.8327 29.6571V36.0094ZM34.3327 42.065C33.6324 42.0221 32.9178 41.9999 32.1915 41.9999L28.8326 41.9999C28.8053 41.9999 28.778 41.9998 28.7508 41.9995L31.6278 50.2421C31.6284 50.2437 31.629 50.2454 31.6296 50.247C31.8289 50.7987 32.3527 51.1666 32.9397 51.1666C33.709 51.1666 34.3327 50.5429 34.3327 49.7736V42.065Z" fill="url(#paint0_linear_2187_55234)"/>
</g>
<defs>
<filter id="filter0_dd_2187_55234" x="0" y="0" width="75" height="75" filterUnits="userSpaceOnUse" color-interpolation-filters="sRGB">
<feFlood flood-opacity="0" result="BackgroundImageFix"/>
<feColorMatrix in="SourceAlpha" type="matrix" values="0 0 0 0 0 0 0 0 0 0 0 0 0 0 0 0 0 0 127 0" result="hardAlpha"/>
<feOffset dy="1"/>
<feGaussianBlur stdDeviation="1"/>
<feColorMatrix type="matrix" values="0 0 0 0 0 0 0 0 0 0 0 0 0 0 0 0 0 0 0.06 0"/>
<feBlend mode="normal" in2="BackgroundImageFix" result="effect1_dropShadow_2187_55234"/>
<feColorMatrix in="SourceAlpha" type="matrix" values="0 0 0 0 0 0 0 0 0 0 0 0 0 0 0 0 0 0 127 0" result="hardAlpha"/>
<feOffset dy="1"/>
<feGaussianBlur stdDeviation="1.5"/>
<feColorMatrix type="matrix" values="0 0 0 0 0 0 0 0 0 0 0 0 0 0 0 0 0 0 0.1 0"/>
<feBlend mode="normal" in2="effect1_dropShadow_2187_55234" result="effect2_dropShadow_2187_55234"/>
<feBlend mode="normal" in="SourceGraphic" in2="effect2_dropShadow_2187_55234" result="shape"/>
</filter>
<linearGradient id="paint0_linear_2187_55234" x1="37.9993" y1="18.1665" x2="37.9993" y2="54.8333" gradientUnits="userSpaceOnUse">
<stop stop-color="#F0B7DA"/>
<stop offset="1" stop-color="#6AD0F9"/>
</linearGradient>
</defs>
</svg>
