<svg width="75" height="75" viewBox="0 0 75 75" fill="none" xmlns="http://www.w3.org/2000/svg">
<g filter="url(#filter0_dd_1591_41227)">
<rect x="3" y="2" width="69" height="69" rx="20" fill="white"/>
<path fill-rule="evenodd" clip-rule="evenodd" d="M23.3332 23.6667C23.3332 20.6292 25.7956 18.1667 28.8332 18.1667H47.1665C50.2041 18.1667 52.6665 20.6292 52.6665 23.6667V51.1667L54.4998 51.1667C55.5123 51.1667 56.3332 51.9875 56.3332 53C56.3332 54.0125 55.5124 54.8333 54.4999 54.8334H21.4998C20.4873 54.8333 19.6665 54.0125 19.6665 53C19.6665 51.9875 20.4873 51.1667 21.4999 51.1667L23.3332 51.1667V23.6667ZM26.9998 51.1667H32.4998V43.8334C32.4998 41.8083 34.1415 40.1667 36.1665 40.1667H39.8332C41.8582 40.1667 43.4998 41.8083 43.4998 43.8334V51.1667H48.9998V23.6667C48.9998 22.6542 48.179 21.8334 47.1665 21.8334H28.8332C27.8206 21.8334 26.9998 22.6542 26.9998 23.6667V51.1667ZM39.8332 51.1667V43.8334H36.1665V51.1667H39.8332ZM30.6665 27.3334C30.6665 26.3208 31.4873 25.5 32.4998 25.5H34.3332C35.3457 25.5 36.1665 26.3208 36.1665 27.3334C36.1665 28.3459 35.3457 29.1667 34.3332 29.1667H32.4998C31.4873 29.1667 30.6665 28.3459 30.6665 27.3334ZM39.8332 27.3334C39.8332 26.3208 40.654 25.5 41.6665 25.5H43.4998C44.5124 25.5 45.3332 26.3208 45.3332 27.3334C45.3332 28.3459 44.5124 29.1667 43.4998 29.1667H41.6665C40.654 29.1667 39.8332 28.3459 39.8332 27.3334ZM30.6665 34.6667C30.6665 33.6542 31.4873 32.8334 32.4998 32.8334H34.3332C35.3457 32.8334 36.1665 33.6542 36.1665 34.6667C36.1665 35.6792 35.3457 36.5 34.3332 36.5H32.4998C31.4873 36.5 30.6665 35.6792 30.6665 34.6667ZM39.8332 34.6667C39.8332 33.6542 40.654 32.8334 41.6665 32.8334H43.4998C44.5124 32.8334 45.3332 33.6542 45.3332 34.6667C45.3332 35.6792 44.5124 36.5 43.4998 36.5H41.6665C40.654 36.5 39.8332 35.6792 39.8332 34.6667Z" fill="url(#paint0_linear_1591_41227)"/>
</g>
<defs>
<filter id="filter0_dd_1591_41227" x="0" y="0" width="75" height="75" filterUnits="userSpaceOnUse" color-interpolation-filters="sRGB">
<feFlood flood-opacity="0" result="BackgroundImageFix"/>
<feColorMatrix in="SourceAlpha" type="matrix" values="0 0 0 0 0 0 0 0 0 0 0 0 0 0 0 0 0 0 127 0" result="hardAlpha"/>
<feOffset dy="1"/>
<feGaussianBlur stdDeviation="1"/>
<feColorMatrix type="matrix" values="0 0 0 0 0 0 0 0 0 0 0 0 0 0 0 0 0 0 0.06 0"/>
<feBlend mode="normal" in2="BackgroundImageFix" result="effect1_dropShadow_1591_41227"/>
<feColorMatrix in="SourceAlpha" type="matrix" values="0 0 0 0 0 0 0 0 0 0 0 0 0 0 0 0 0 0 127 0" result="hardAlpha"/>
<feOffset dy="1"/>
<feGaussianBlur stdDeviation="1.5"/>
<feColorMatrix type="matrix" values="0 0 0 0 0 0 0 0 0 0 0 0 0 0 0 0 0 0 0.1 0"/>
<feBlend mode="normal" in2="effect1_dropShadow_1591_41227" result="effect2_dropShadow_1591_41227"/>
<feBlend mode="normal" in="SourceGraphic" in2="effect2_dropShadow_1591_41227" result="shape"/>
</filter>
<linearGradient id="paint0_linear_1591_41227" x1="37.9998" y1="18.1667" x2="37.9998" y2="54.8334" gradientUnits="userSpaceOnUse">
<stop stop-color="#F0B7DA"/>
<stop offset="1" stop-color="#6AD0F9"/>
</linearGradient>
</defs>
</svg>
