<svg width="14" height="14" viewBox="0 0 14 14" fill="none" xmlns="http://www.w3.org/2000/svg">
<path fill-rule="evenodd" clip-rule="evenodd" d="M6.99992 0.333252C7.40902 0.333252 7.74066 0.664893 7.74066 1.07399V6.25918H12.9258C13.3349 6.25918 13.6666 6.59082 13.6666 6.99992C13.6666 7.40902 13.3349 7.74066 12.9258 7.74066H7.74066V12.9258C7.74066 13.3349 7.40902 13.6666 6.99992 13.6666C6.59082 13.6666 6.25918 13.3349 6.25918 12.9258V7.74066H1.07399C0.664893 7.74066 0.333252 7.40902 0.333252 6.99992C0.333252 6.59082 0.664893 6.25918 1.07399 6.25918H6.25918V1.07399C6.25918 0.664893 6.59082 0.333252 6.99992 0.333252Z" fill="#111827"/>
</svg>
