<svg width="18" height="14" viewBox="0 0 18 14" fill="none" xmlns="http://www.w3.org/2000/svg">
<path fill-rule="evenodd" clip-rule="evenodd" d="M10.0777 0.577574C10.4032 0.252137 10.9308 0.252137 11.2562 0.577574L17.0896 6.41091C17.2459 6.56719 17.3337 6.77915 17.3337 7.00016C17.3337 7.22118 17.2459 7.43314 17.0896 7.58942L11.2562 13.4228C10.9308 13.7482 10.4032 13.7482 10.0777 13.4228C9.7523 13.0973 9.7523 12.5697 10.0777 12.2442L14.4885 7.8335L1.50033 7.8335C1.04009 7.8335 0.666992 7.4604 0.666992 7.00016C0.666992 6.53992 1.04009 6.16683 1.50033 6.16683L14.4885 6.16683L10.0777 1.75609C9.7523 1.43065 9.7523 0.903011 10.0777 0.577574Z" fill="#F26FC0"/>
</svg>
