<svg width="16" height="16" viewBox="0 0 16 16" fill="none" xmlns="http://www.w3.org/2000/svg">
<path fill-rule="evenodd" clip-rule="evenodd" d="M5.99998 2C3.79085 2 1.99999 3.79086 1.99999 6C1.99999 8.20914 3.79085 10 5.99998 10C8.20911 10 9.99997 8.20914 9.99997 6C9.99997 3.79086 8.20911 2 5.99998 2ZM0 6C0 2.68629 2.68628 0 5.99998 0C9.31368 0 12 2.68629 12 6C12 7.29583 11.5892 8.49572 10.8907 9.47653L15.7071 14.2929C16.0976 14.6834 16.0976 15.3166 15.7071 15.7071C15.3165 16.0976 14.6834 16.0976 14.2928 15.7071L9.47651 10.8907C8.49569 11.5892 7.29581 12 5.99998 12C2.68628 12 0 9.31371 0 6Z" fill="#9CA3AF"/>
</svg>
