<svg width="21" height="21" viewBox="0 0 21 21" fill="none" xmlns="http://www.w3.org/2000/svg">
<circle cx="10.5" cy="10.5" r="10.5" fill="#FFEFE7"/>
<path d="M16.6472 10.5557C16.6082 10.5481 15.9087 10.4128 14.9701 10.3436C14.9747 10.2573 14.9771 10.1705 14.9771 10.0831C14.9771 7.38304 12.7804 5.18634 10.0803 5.18634C7.38017 5.18634 5.18343 7.38304 5.18343 10.0831C5.18343 10.6524 5.28144 11.1991 5.46081 11.7078C4.83473 11.7605 4.37968 11.8485 4.35278 11.8538L4 11.923L4.15365 12.248C4.20102 12.3482 5.33019 14.7104 6.74453 15.425C7.25493 15.6829 7.7323 15.8136 8.16342 15.8137C8.16352 15.8137 8.16355 15.8137 8.16362 15.8137C8.8057 15.8137 9.3315 15.5237 9.66233 14.9924C10.0964 15.511 10.7073 15.7904 11.4302 15.7904C12.0061 15.7904 12.6463 15.6145 13.3331 15.2676C15.2451 14.3015 16.7819 11.0864 16.8464 10.95L17 10.625L16.6472 10.5557ZM14.1146 8.49085C13.9301 8.33974 13.7175 8.1983 13.4782 8.06871C13.182 7.90829 12.8544 7.77167 12.5037 7.65978C12.3918 7.30902 12.2552 6.98136 12.0947 6.68512C11.9651 6.44584 11.8237 6.23328 11.6725 6.04872C12.7854 6.48952 13.6739 7.37804 14.1146 8.49085ZM14.3814 9.8033H12.8561C12.8401 9.28883 12.7795 8.7892 12.6783 8.31879C13.5872 8.67394 14.2271 9.20567 14.3814 9.8033ZM10.3601 5.78199C10.9578 5.93634 11.4895 6.57628 11.8447 7.48515C11.3742 7.38391 10.8746 7.32339 10.3601 7.30729V5.78199ZM10.3601 7.86711C10.9618 7.88783 11.5345 7.97471 12.05 8.11338C12.1887 8.62892 12.2756 9.20163 12.2963 9.80327H10.3601V7.86711ZM10.3601 10.3629H12.2963C12.2955 10.3877 12.2945 10.4124 12.2935 10.437C11.8268 10.5236 11.4235 10.652 11.0872 10.8218C10.8187 10.9575 10.5763 11.1022 10.3601 11.2556V10.3629ZM9.80043 5.78199V7.30729C9.28592 7.32339 8.7863 7.38391 8.31586 7.48515C8.67104 6.57628 9.2028 5.93634 9.80043 5.78199ZM9.80043 7.86711V9.8033H7.86421C7.88492 9.20166 7.9718 8.62892 8.11051 8.11338C8.62601 7.97471 9.19879 7.88786 9.80043 7.86711ZM8.48795 6.04878C8.3368 6.23335 8.1954 6.44591 8.0658 6.68519C7.90535 6.98139 7.76873 7.30909 7.65684 7.65981C7.30608 7.77173 6.97845 7.90832 6.68222 8.06877C6.44294 8.19837 6.23037 8.33977 6.04581 8.49088C6.48662 7.37801 7.3751 6.48952 8.48795 6.04878ZM7.48225 8.31876C7.381 8.7892 7.32045 9.2888 7.30438 9.8033H5.77911C5.93343 9.20567 6.57337 8.67394 7.48225 8.31876ZM7.30438 10.3629C7.31939 10.8428 7.37295 11.3098 7.46223 11.7523C7.36638 11.7363 7.26715 11.7225 7.16452 11.7111C6.42562 11.3627 5.91474 10.8883 5.77911 10.3629H7.30438ZM9.04844 14.8804C8.86285 15.0852 8.58281 15.254 8.16362 15.254H8.16349C7.82081 15.254 7.4283 15.1435 6.99689 14.9255C6.04462 14.4444 5.18555 13.0011 4.83127 12.3427C5.18414 12.2922 5.74896 12.2284 6.34849 12.2284C7.1466 12.2284 7.76787 12.3378 8.19508 12.5536C8.58002 12.7481 8.87459 12.9657 9.07666 13.2003C9.03648 13.6082 9.11428 14.0259 9.30914 14.4353L6.48004 13.1107L9.04844 14.8804ZM8.68094 12.1806C8.60616 12.1373 8.52851 12.0951 8.44741 12.0541C8.33247 11.996 8.20665 11.9448 8.07132 11.8998C7.95548 11.4249 7.88294 10.9057 7.86421 10.3629H9.80043V11.7318C9.63414 11.9041 9.49541 12.085 9.38441 12.2741C9.14327 12.2532 8.90813 12.2217 8.68094 12.1806ZM13.0808 14.768C12.473 15.0751 11.9176 15.2308 11.4302 15.2308C10.7799 15.2308 10.3588 14.953 10.089 14.6295L13.9744 12.1406L9.83997 14.2484C9.83914 14.2467 9.83821 14.245 9.83738 14.2434C9.28413 13.1481 9.83167 12.0831 11.3396 11.3214C11.9415 11.0173 12.8113 10.8631 13.9248 10.8631C14.8419 10.8631 15.7029 10.9714 16.172 11.0431C15.7319 11.8804 14.4842 14.059 13.0808 14.768Z" fill="black"/>
</svg>
