<svg width="21" height="21" viewBox="0 0 21 21" fill="none" xmlns="http://www.w3.org/2000/svg">
<circle cx="10.5" cy="10.5" r="10.5" fill="#EFEFEF"/>
<path d="M14.0472 12.0227L15.1054 10.1242C15.4209 9.55891 15.1962 8.83038 14.6309 8.51492C14.4921 8.43742 14.3391 8.38878 14.1736 8.3624L14.339 8.0661C14.6425 7.52226 14.4922 6.85253 13.9484 6.54903L13.8705 6.50556C13.7552 6.44124 13.5817 6.38604 13.4585 6.36503C13.7567 5.79067 13.5338 5.2368 13.0204 4.95024L12.9425 4.90678C12.3988 4.60335 11.8138 4.84349 11.5103 5.38733L11.4681 5.46302C11.3271 5.2883 11.2146 5.20354 11.1042 5.14191L11.0263 5.09844C10.4824 4.79494 9.73957 5.00946 9.43607 5.5533L7.93719 8.2391C7.85985 8.05489 7.78434 7.90645 7.64574 7.7684C7.39327 7.51707 7.06623 7.38356 6.70993 7.38414C5.97957 7.38549 5.38944 7.97906 5.38277 8.70765C5.36817 8.90649 5.32242 9.4333 5.26075 9.67487C5.05188 10.4936 4.82815 11.5792 4.94618 12.7132C5.10058 14.1968 5.80174 15.2963 7.03043 15.9818C7.05076 15.9931 7.07172 16.0046 7.09234 16.0158C8.22864 16.6283 9.22835 16.7996 10.1489 16.5392C11.2255 16.2344 12.1121 15.5404 12.6468 14.5824L14.0472 12.0227ZM9.94286 15.8117C9.22104 16.016 8.40603 15.8653 7.45121 15.3504C7.43389 15.3411 7.41678 15.3318 7.39975 15.3223C5.75216 14.4028 5.29264 12.616 5.99533 9.86288C6.08639 9.50602 6.1429 8.72364 6.1429 8.72364C6.14215 8.40507 6.401 8.14527 6.71948 8.14466C6.87387 8.14435 7.01904 8.20411 7.12839 8.31323C7.23767 8.42214 7.29813 8.56721 7.2983 8.72152L7.36914 11.0282C7.37558 11.2368 7.5499 11.401 7.75864 11.3946C7.96739 11.3882 8.1282 11.2121 8.12184 11.0033L8.0759 9.60459L10.1229 5.9366C10.2232 5.75692 10.4631 5.68493 10.643 5.78528L10.7208 5.82875C10.9005 5.92902 11.0474 6.21689 10.9471 6.39657L9.24738 9.44228C9.14566 9.62457 9.15562 9.82397 9.3379 9.9257C9.52019 10.0274 9.69513 9.93121 9.79685 9.74892L12.0598 5.69397C12.1601 5.51429 12.3953 5.32201 12.575 5.42228L12.7137 5.49971C12.8935 5.60006 12.8469 5.8976 12.7466 6.07728L10.3947 10.2917C10.293 10.474 10.3716 10.7117 10.5539 10.8135C10.7362 10.9152 10.9798 10.8573 11.0815 10.675L12.9772 7.27819C13.0685 7.06128 13.3366 6.92824 13.5092 7.02452L13.587 7.06799C13.7667 7.16826 13.7525 7.50298 13.6522 7.68279L11.5901 11.3777C11.4884 11.56 11.567 11.7977 11.7493 11.8994C11.9316 12.0012 12.1752 11.9433 12.277 11.761L13.5722 9.44018C13.7439 9.09213 14.0841 9.07539 14.2854 9.1877C14.4866 9.30001 14.5817 9.56799 14.4694 9.76924L13.4876 11.5285L11.9969 14.2236C11.5623 15.0023 10.825 15.562 9.94286 15.8117Z" fill="black"/>
</svg>
