<svg width="21" height="21" viewBox="0 0 21 21" fill="none" xmlns="http://www.w3.org/2000/svg">
<circle cx="10.5" cy="10.5" r="10.5" fill="#E6F3FF"/>
<g clip-path="url(#clip0_347_53)">
<path d="M10.5 4C6.92101 4 4 6.92114 4 10.5C4 14.079 6.92117 17 10.5 17C14.079 17 17 14.0788 17 10.5C17 6.92096 14.0788 4 10.5 4ZM10.5 16.2383C7.3359 16.2383 4.76172 13.6641 4.76172 10.5C4.76172 7.3359 7.3359 4.76172 10.5 4.76172C13.6641 4.76172 16.2383 7.3359 16.2383 10.5C16.2383 13.6641 13.6641 16.2383 10.5 16.2383Z" fill="black"/>
<path d="M9.35742 9.35742C9.56776 9.35742 9.73828 9.1869 9.73828 8.97656C9.73828 8.76623 9.56776 8.5957 9.35742 8.5957H8.5957C8.38537 8.5957 8.21484 8.76623 8.21484 8.97656V12.0234C8.21484 12.2338 8.38537 12.4043 8.5957 12.4043H9.35742C9.56776 12.4043 9.73828 12.2338 9.73828 12.0234C9.73828 11.8131 9.56776 11.6426 9.35742 11.6426H8.97656V10.8809H9.35742C9.56776 10.8809 9.73828 10.7103 9.73828 10.5C9.73828 10.2897 9.56776 10.1191 9.35742 10.1191H8.97656V9.35742H9.35742Z" fill="black"/>
<path d="M12.7852 11.2617V8.97656C12.7852 8.76623 12.6146 8.5957 12.4043 8.5957C12.194 8.5957 12.0234 8.76623 12.0234 8.97656V11.2617C12.0234 11.4717 11.8526 11.6426 11.6426 11.6426C11.4326 11.6426 11.2617 11.4717 11.2617 11.2617V8.97656C11.2617 8.76623 11.0912 8.5957 10.8809 8.5957C10.6705 8.5957 10.5 8.76623 10.5 8.97656V11.2617C10.5 11.8917 11.0126 12.4043 11.6426 12.4043C12.2726 12.4043 12.7852 11.8917 12.7852 11.2617Z" fill="black"/>
<path d="M10.5 15.4512C10.7103 15.4512 10.8809 15.2807 10.8809 15.0703C10.8809 14.86 10.7103 14.6895 10.5 14.6895C10.2897 14.6895 10.1191 14.86 10.1191 15.0703C10.1191 15.2807 10.2897 15.4512 10.5 15.4512Z" fill="black"/>
<path d="M10.5 6.31055C10.7103 6.31055 10.8809 6.14003 10.8809 5.92969C10.8809 5.71934 10.7103 5.54883 10.5 5.54883C10.2897 5.54883 10.1191 5.71934 10.1191 5.92969C10.1191 6.14003 10.2897 6.31055 10.5 6.31055Z" fill="black"/>
<path d="M12.5948 14.1282C12.4126 14.2333 12.3502 14.4663 12.4554 14.6485C12.5606 14.8306 12.7935 14.893 12.9756 14.7878C13.1578 14.6827 13.2202 14.4497 13.115 14.2676C13.0099 14.0854 12.777 14.023 12.5948 14.1282Z" fill="black"/>
<path d="M8.40533 6.87182C8.5875 6.76666 8.64991 6.53372 8.54472 6.35157C8.43955 6.16939 8.20662 6.10698 8.02447 6.21218C7.84231 6.31734 7.7799 6.55028 7.88507 6.73243C7.99024 6.91458 8.22317 6.97699 8.40533 6.87182Z" fill="black"/>
<path d="M14.6485 12.4553C14.4663 12.3502 14.2334 12.4126 14.1282 12.5947C14.0231 12.7769 14.0855 13.0098 14.2676 13.115C14.4498 13.2201 14.6827 13.1577 14.7879 12.9756C14.8931 12.7934 14.8306 12.5605 14.6485 12.4553Z" fill="black"/>
<path d="M6.73247 7.88501C6.5503 7.77984 6.31739 7.84225 6.21222 8.02441C6.10705 8.20656 6.16946 8.43949 6.35162 8.54466C6.53377 8.64983 6.7667 8.58742 6.87187 8.40527C6.97704 8.22311 6.91463 7.99018 6.73247 7.88501Z" fill="black"/>
<path d="M15.0703 10.8809C15.2807 10.8809 15.4512 10.7103 15.4512 10.5C15.4512 10.2897 15.2807 10.1191 15.0703 10.1191C14.86 10.1191 14.6895 10.2897 14.6895 10.5C14.6895 10.7103 14.86 10.8809 15.0703 10.8809Z" fill="black"/>
<path d="M5.92969 10.8809C6.14003 10.8809 6.31055 10.7103 6.31055 10.5C6.31055 10.2897 6.14003 10.1191 5.92969 10.1191C5.71934 10.1191 5.54883 10.2897 5.54883 10.5C5.54883 10.7103 5.71934 10.8809 5.92969 10.8809Z" fill="black"/>
<path d="M14.6485 8.54467C14.8307 8.4395 14.8931 8.20657 14.7879 8.02442C14.6827 7.84226 14.4498 7.77983 14.2676 7.88502C14.0855 7.99019 14.0231 8.22312 14.1282 8.40528C14.2334 8.58743 14.4663 8.64986 14.6485 8.54467Z" fill="black"/>
<path d="M6.35163 12.4553C6.16945 12.5605 6.10704 12.7934 6.21224 12.9756C6.31741 13.1577 6.55034 13.2201 6.73249 13.115C6.91464 13.0098 6.97705 12.7769 6.87189 12.5947C6.76672 12.4126 6.53378 12.3502 6.35163 12.4553Z" fill="black"/>
<path d="M12.9756 6.21216C12.7935 6.10699 12.5606 6.1694 12.4554 6.35155C12.3502 6.53371 12.4126 6.76664 12.5948 6.87181C12.777 6.97698 13.0099 6.91457 13.115 6.73241C13.2202 6.55026 13.1578 6.31733 12.9756 6.21216Z" fill="black"/>
<path d="M8.40533 14.1282C8.22317 14.023 7.99024 14.0854 7.88507 14.2676C7.7799 14.4497 7.84231 14.6827 8.02447 14.7878C8.20664 14.893 8.43955 14.8306 8.54472 14.6485C8.64991 14.4663 8.5875 14.2333 8.40533 14.1282Z" fill="black"/>
</g>
<defs>
<clipPath id="clip0_347_53">
<rect width="13" height="13" fill="white" transform="translate(4 4)"/>
</clipPath>
</defs>
</svg>
