<svg width="21" height="21" viewBox="0 0 21 21" fill="none" xmlns="http://www.w3.org/2000/svg">
<circle cx="10.5" cy="10.5" r="10.5" fill="#FFF8E6"/>
<g clip-path="url(#clip0_433_2)">
<path d="M14.9144 11.2954C14.9144 9.96681 14.2095 8.37129 12.8193 6.55322C11.8035 5.22465 10.8025 4.28314 10.7603 4.24371L10.5001 4L10.2397 4.24371C10.1976 4.28314 9.19661 5.22465 8.18076 6.55322C6.79058 8.37129 6.08569 9.96681 6.08569 11.2954C6.08569 13.6012 7.86276 15.4994 10.1192 15.6932V17H10.8809V15.6932C13.1373 15.4994 14.9144 13.6012 14.9144 11.2954ZM10.1192 12.266L7.29856 9.44535C7.54877 8.87376 7.87771 8.31315 8.21884 7.80509L10.1192 9.70543V12.266ZM10.8809 9.70548L12.7813 7.80512C13.1224 8.31315 13.4514 8.87376 13.7016 9.44537L10.8809 12.266V9.70548ZM12.221 7.02477C12.2585 7.07385 12.2963 7.12392 12.3343 7.17483L10.8809 8.6282V5.44997C11.2512 5.84402 11.738 6.39222 12.221 7.02477ZM10.1192 5.44997V8.6282L8.66583 7.17485C8.70382 7.12395 8.74163 7.07385 8.7791 7.02479C9.26215 6.39222 9.74895 5.84402 10.1192 5.44997ZM6.84743 11.2954C6.84743 10.9519 6.90738 10.5948 7.0105 10.2345L10.1192 13.3432V14.9282C8.28344 14.7372 6.84743 13.1809 6.84743 11.2954ZM10.8809 14.9282V13.3433L13.9896 10.2346C14.0927 10.5949 14.1527 10.9519 14.1527 11.2954C14.1527 13.1809 12.7167 14.7372 10.8809 14.9282Z" fill="black"/>
</g>
<defs>
<clipPath id="clip0_433_2">
<rect width="13" height="13" fill="white" transform="translate(4 4)"/>
</clipPath>
</defs>
</svg>
