<svg width="21" height="21" viewBox="0 0 21 21" fill="none" xmlns="http://www.w3.org/2000/svg">
<circle cx="10.5" cy="10.5" r="10.5" fill="#E7EDFF"/>
<path d="M13.6411 5.50787H12.5158V5.03735C12.5158 4.46546 12.0503 4 11.4784 4H9.54478C8.97289 4 8.50743 4.46546 8.50743 5.03735V5.50787H7.38201C6.60918 5.50787 5.98047 6.13658 5.98047 6.90941V8.11378C5.98047 8.33287 6.1581 8.51021 6.3769 8.51021H6.63408L6.90018 15.7456C6.92587 16.4489 7.49756 17 8.20135 17H12.8219C13.5257 17 14.0973 16.4489 14.1229 15.7456L14.3891 8.51021H14.6462C14.8651 8.51021 15.0427 8.33287 15.0427 8.11378V6.90941C15.0427 6.13658 14.4139 5.50787 13.6411 5.50787ZM12.8219 16.2071H8.20135C7.92622 16.2071 7.70267 15.9914 7.69235 15.7163L7.42754 8.51021H13.5957L13.3309 15.7163C13.3205 15.9914 13.097 16.2071 12.8219 16.2071ZM7.38201 6.30073H13.6411C13.9761 6.30073 14.2498 6.57338 14.2498 6.90941V7.71735C13.8689 7.71735 7.14159 7.71735 6.77333 7.71735V6.90941C6.77333 6.57308 7.04727 6.30073 7.38201 6.30073ZM9.30029 5.03735C9.30029 4.90256 9.40999 4.79286 9.54478 4.79286H11.4784C11.6132 4.79286 11.7228 4.90256 11.7228 5.03735V5.50787H9.30029V5.03735Z" fill="black"/>
<path d="M9.29419 9.59754H9.28814C9.06895 9.60101 8.89428 9.78123 8.89776 10.0003L8.97512 14.9636C8.97829 15.1803 9.15514 15.3537 9.37135 15.3537H9.3777C9.5965 15.3503 9.77126 15.17 9.76779 14.9512L9.69062 9.98792C9.68715 9.77121 9.51041 9.59754 9.29419 9.59754Z" fill="black"/>
<path d="M11.735 9.59755C11.5164 9.59338 11.3359 9.76913 11.3326 9.98793L11.2553 14.9512C11.2519 15.17 11.4266 15.3503 11.6455 15.3537H11.6518C11.8679 15.3537 12.0448 15.1803 12.048 14.9636L12.1254 10.0003C12.1289 9.78123 11.9541 9.60102 11.735 9.59755Z" fill="black"/>
</svg>
