<svg width="21" height="21" viewBox="0 0 21 21" fill="none" xmlns="http://www.w3.org/2000/svg">
<circle cx="10.5" cy="10.5" r="10.5" fill="#FDE7FF"/>
<g clip-path="url(#clip0_347_104)">
<path d="M15.9305 9.50742L15.8833 9.24807L15.624 9.20087C14.8357 9.04842 13.4504 9.10971 12.6753 9.49119C13.9524 6.92485 11.4234 4.60693 10.716 4.15006L10.4992 4L10.2825 4.15006C9.54517 4.63222 7.04933 6.93551 8.32672 9.50488C7.55106 9.10705 6.1698 9.04824 5.37523 9.20087L5.11589 9.24807L5.06871 9.50742C4.72953 11.4009 5.19524 15.062 9.46224 15.0126H9.46252C9.72044 15.0126 9.94523 14.9986 10.1188 14.9824V17H10.8805V14.9824C15.4663 15.4 16.3381 11.8964 15.9305 9.50742ZM10.4992 4.94435C12.439 6.53946 13.0413 8.64597 10.8801 10.6909V7.98747H10.1184V10.6909C7.95199 8.64137 8.56618 6.53352 10.4992 4.94435ZM9.46227 14.2509C6.23445 14.2901 5.57836 11.9325 5.78368 9.91523C8.85313 9.6282 10.1846 11.251 10.1164 13.7099L8.20476 11.7983L7.66614 12.3369L9.57901 14.2498C9.54111 14.2505 9.50223 14.2509 9.46249 14.2509H9.46227V14.2509ZM14.3112 13.3151C13.9151 13.7495 12.8875 14.2991 11.4202 14.2498L13.3331 12.3369L12.7944 11.7983L10.8815 13.7113C10.8783 13.5347 10.882 13.3365 10.8983 13.1254C11.1241 10.6108 12.6584 9.7317 15.2155 9.9152C15.2807 10.5773 15.3338 12.2924 14.3112 13.3151Z" fill="black"/>
</g>
<defs>
<clipPath id="clip0_347_104">
<rect width="13" height="13" fill="white" transform="translate(4 4)"/>
</clipPath>
</defs>
</svg>
