<svg width="21" height="21" viewBox="0 0 21 21" fill="none" xmlns="http://www.w3.org/2000/svg">
<circle cx="10.5" cy="10.5" r="10.5" fill="#E7ECFF"/>
<g clip-path="url(#clip0_347_92)">
<path d="M4.72679 10.2632C4.97663 8.61535 5.92511 7.14735 7.32893 6.23547C8.30955 5.59862 9.42763 5.27965 10.5805 5.29383L10.1535 4.86695C9.95528 4.66859 9.95528 4.34704 10.1535 4.14877C10.3519 3.95041 10.6735 3.95041 10.8717 4.14877L12.3159 5.59287C12.5831 5.77794 12.6025 6.15979 12.3836 6.37879L10.8717 7.89052C10.6735 8.08889 10.3519 8.08889 10.1535 7.89052C9.95528 7.69226 9.95528 7.37071 10.1535 7.17234L10.9925 6.33336C9.88903 6.22743 8.80963 6.48481 7.88217 7.08725C6.72144 7.84123 5.93731 9.05423 5.73101 10.4154C5.68905 10.6921 5.43058 10.8835 5.15277 10.8413C4.87546 10.7992 4.68483 10.5405 4.72679 10.2632ZM12.2699 15.654C10.988 16.1559 9.54556 16.0834 8.31223 15.4551C7.32685 14.9531 6.56434 14.147 6.10433 13.1386L7.24949 13.4453C7.52035 13.5179 7.79876 13.3571 7.87136 13.0862C7.94396 12.8153 7.78319 12.5368 7.51232 12.4642L5.44665 11.9109C5.14851 11.831 4.83271 12.0385 4.80197 12.355L4.27134 14.3351C4.19874 14.6061 4.35951 14.8846 4.63038 14.9572C4.90293 15.0302 5.18015 14.8672 5.25225 14.5981L5.40906 14.0131C5.97321 15.0194 6.80882 15.829 7.85123 16.36C9.31278 17.1047 11.0578 17.2192 12.6401 16.5997C12.9012 16.4975 13.03 16.2029 12.9279 15.9417C12.8256 15.6806 12.531 15.5519 12.2699 15.654ZM16.754 14.3351C16.6815 14.0642 16.4029 13.9033 16.1322 13.9759L15.5473 14.1327C16.1361 13.1412 16.4191 12.0133 16.3578 10.8455C16.27 9.17374 15.473 7.61847 14.171 6.57824C13.9518 6.40319 13.6324 6.43889 13.4573 6.65808C13.2823 6.87718 13.318 7.19674 13.5371 7.3717C14.6126 8.23102 15.2711 9.51652 15.3436 10.8987C15.4016 12.0028 15.085 13.066 14.4419 13.9685L14.1349 12.8233C14.0623 12.5524 13.7839 12.3916 13.5129 12.4642C13.2421 12.5368 13.0813 12.8153 13.1539 13.0862L13.7074 15.1514C13.7892 15.4564 14.1271 15.6234 14.4196 15.4862L16.3949 14.957C16.6659 14.8845 16.8266 14.6061 16.754 14.3351Z" fill="black"/>
</g>
<defs>
<clipPath id="clip0_347_92">
<rect width="13" height="13" fill="white" transform="translate(4 4)"/>
</clipPath>
</defs>
</svg>
