<svg width="21" height="21" viewBox="0 0 21 21" fill="none" xmlns="http://www.w3.org/2000/svg">
<circle cx="10.5" cy="10.5" r="10.5" fill="#E7FFED"/>
<path d="M16.4285 14.3072H14.1542C13.9228 14.3072 13.7142 14.17 13.6257 13.9557C13.5371 13.7443 13.5828 13.4986 13.7457 13.3329L15.4371 11.6129C15.4685 11.5643 15.5 11.4929 15.5 11.4015C15.5 11.1872 15.3257 11.0129 15.1114 11.0129C14.8971 11.0129 14.7228 11.1872 14.7228 11.4015C14.7228 11.7186 14.4657 11.9729 14.1514 11.9729C13.8342 11.9729 13.58 11.7157 13.58 11.4015C13.58 10.5557 14.2685 9.87003 15.1114 9.87003C15.9542 9.87003 16.6428 10.5586 16.6428 11.4015C16.6428 11.7386 16.5342 12.0615 16.3314 12.33C16.3171 12.35 16.3 12.3672 16.2828 12.3843L15.5171 13.1615H16.4285C16.7457 13.1615 17 13.4186 17 13.7329C17 14.0529 16.7457 14.3072 16.4285 14.3072Z" fill="black"/>
<path d="M10.7657 13.1929C9.24852 13.1929 8.01709 11.9586 8.01709 10.4443C8.01709 8.92717 9.25138 7.69574 10.7657 7.69574C12.2828 7.69574 13.5142 8.93003 13.5142 10.4443C13.5142 11.9586 12.2828 13.1929 10.7657 13.1929ZM10.7657 8.8386C9.87995 8.8386 9.15995 9.5586 9.15995 10.4443C9.15995 11.33 9.87995 12.05 10.7657 12.05C11.6514 12.05 12.3714 11.33 12.3714 10.4443C12.3714 9.5586 11.6514 8.8386 10.7657 8.8386Z" fill="black"/>
<path d="M5.69429 13.0814C4.20857 13.0814 3 11.8729 3 10.3872C3 8.90144 4.20857 7.69287 5.69429 7.69287C6.54571 7.69287 7.35429 8.10144 7.86 8.78716C8.04857 9.04144 7.99429 9.39859 7.74 9.58716C7.48571 9.77573 7.12857 9.72144 6.94 9.46716C6.64286 9.06716 6.18857 8.83859 5.69429 8.83859C4.84 8.83859 4.14571 9.53287 4.14571 10.3872C4.14571 11.2414 4.84 11.9357 5.69429 11.9357C6.13143 11.9357 6.53714 11.7586 6.83429 11.4357C7.04857 11.2043 7.41143 11.1872 7.64286 11.4014C7.87429 11.6157 7.89143 11.9786 7.67714 12.21C7.16571 12.7643 6.44571 13.0814 5.69429 13.0814Z" fill="black"/>
</svg>
