<svg width="21" height="21" viewBox="0 0 21 21" fill="none" xmlns="http://www.w3.org/2000/svg">
<circle cx="10.5" cy="10.5" r="10.5" fill="#E7F6FF"/>
<path d="M14.0285 7.34305C12.1842 7.34305 10.9636 8.85097 9.88684 10.1817C8.96685 11.3184 8.09809 12.3919 7.03999 12.3919C5.94018 12.3919 5.26493 11.2615 5.26493 10.4511C5.26493 9.69982 6.00569 8.60797 7.16669 8.60797C8.29324 8.60797 8.88014 9.50961 8.90973 9.55583C9.09224 9.85118 9.47976 9.94412 9.77659 9.76308C10.0749 9.58135 10.1694 9.19219 9.98757 8.8939C9.94897 8.83072 9.0212 7.34313 7.16669 7.34313C5.30058 7.34313 4 8.9813 4 10.4512C4 11.9675 5.24848 13.6569 7.03991 13.6569C8.70135 13.6569 9.80393 12.2948 10.87 10.9774C11.8562 9.7591 12.7878 8.60806 14.0285 8.60806C14.7666 8.60806 15.2517 8.8585 15.5109 9.37306C15.7356 9.81959 15.7354 10.3249 15.7352 10.5C15.7352 10.6003 15.6822 11.1038 15.4366 11.5572C15.1566 12.0737 14.759 12.3141 14.1845 12.3141C13.0276 12.3141 12.4025 11.562 12.1671 11.2788C12.1059 11.2051 12.0619 11.152 12.003 11.1017C11.7381 10.8747 11.3386 10.9051 11.1112 11.1705C10.8919 11.4263 10.913 11.8068 11.1525 12.037C11.164 12.05 11.1777 12.0671 11.1941 12.0869C11.5009 12.4561 12.4336 13.5788 14.1842 13.5788C16.3118 13.5788 16.9999 11.5042 16.9999 10.4913C17.0001 9.84616 16.8793 9.27864 16.6404 8.80416C16.3051 8.13781 15.5796 7.34305 14.0285 7.34305Z" fill="black"/>
</svg>
