<svg width="21" height="21" viewBox="0 0 21 21" fill="none" xmlns="http://www.w3.org/2000/svg">
<circle cx="10.5" cy="10.5" r="10.5" fill="#FFF8E6"/>
<g clip-path="url(#clip0_347_10)">
<path d="M16.9824 9.22552C16.9643 9.03644 16.8146 8.88676 16.6255 8.86868C16.5196 8.85858 14.0142 8.63753 12.5552 10.0965C12.2388 10.4129 12.0016 10.7785 11.8239 11.1581C11.5313 9.96005 11.0109 8.96608 10.2964 8.25164C9.41587 7.37107 8.11075 6.7852 6.52221 6.55743C5.34022 6.38792 4.41984 6.4726 4.38124 6.47633C4.19216 6.49441 4.04248 6.64408 4.0244 6.83317C4.0207 6.87176 3.93602 7.79212 4.1055 8.97413C4.33328 10.5627 4.91912 11.8678 5.79972 12.7484C6.68029 13.6289 7.98542 14.2148 9.57396 14.4426C10.159 14.5265 10.6798 14.5481 11.0614 14.5481C11.4072 14.5481 11.9112 14.5413 12.1432 14.5413C12.9547 14.5413 14.6529 14.3975 15.7545 13.2958C17.2135 11.8369 16.9925 9.3315 16.9824 9.22552ZM8.32832 10.2198C8.17356 10.065 7.9226 10.065 7.76779 10.2198C7.61301 10.3745 7.61301 10.6255 7.76779 10.7803L10.7365 13.749C9.59262 13.7105 7.61931 13.447 6.36021 12.1879C4.85968 10.6874 4.77462 8.15934 4.79694 7.24841C5.7079 7.22464 8.23171 7.30795 9.73595 8.81219C10.9914 10.0677 11.256 12.0422 11.2958 13.1873L8.32832 10.2198ZM15.194 12.7354C14.4954 13.434 13.4443 13.6576 12.6889 13.7227L14.4351 11.9764C14.5899 11.8217 14.5899 11.5707 14.4351 11.4159C14.2804 11.2612 14.0294 11.2612 13.8746 11.4159L12.1268 13.1637C12.1909 12.4093 12.4139 11.3588 13.1157 10.657C14.0249 9.74773 15.5311 9.64282 16.2056 9.64538C16.2081 10.3199 16.1032 11.8262 15.194 12.7354Z" fill="#1D1D1D"/>
</g>
<defs>
<clipPath id="clip0_347_10">
<rect width="13" height="13" fill="white" transform="translate(4 4)"/>
</clipPath>
</defs>
</svg>
