<svg width="21" height="21" viewBox="0 0 21 21" fill="none" xmlns="http://www.w3.org/2000/svg">
<circle cx="10.5" cy="10.5" r="10.5" fill="#FFEBE7"/>
<g clip-path="url(#clip0_347_3)">
<path d="M16.9752 9.91738C16.709 6.82417 14.1756 4.29079 11.0824 4.02455C10.2093 3.94957 9.34594 4.0476 8.53646 4.30168C8.41487 4.33142 8.29238 4.36539 8.16924 4.40388L8.17627 4.42643C7.32965 4.7477 6.55211 5.24444 5.89822 5.89832C4.68529 7.11121 4.0115 8.74893 4.0005 10.4657C4.00048 10.4661 4.00045 10.4665 4.00043 10.4669H4.0005C3.99923 10.6712 4.00677 10.8765 4.0245 11.0824C4.29072 14.1756 6.82409 16.709 9.91733 16.9753C10.1095 16.9918 10.3008 17 10.4915 17C12.2236 16.9999 13.8786 16.3244 15.1015 15.1015C16.1001 14.1029 16.7331 12.8163 16.9319 11.4348C16.9327 11.4313 16.9336 11.4279 16.9344 11.4244L16.9335 11.4242C17.0036 10.931 17.019 10.4259 16.9752 9.91738ZM15.5641 8.39404C15.3927 8.33445 15.08 8.12374 14.5777 7.33881L14.576 7.3362C14.2077 6.76841 13.8158 6.27294 13.4046 5.85287C14.3598 6.45583 15.1229 7.34607 15.5641 8.39404ZM10.0044 15.9633C8.04333 15.7945 6.34926 14.5447 5.5342 12.8262C5.46922 12.4534 5.53788 12.1013 5.72275 11.8732C5.86044 11.7033 6.0462 11.6172 6.27489 11.6172C6.27698 11.6172 6.27911 11.6172 6.28119 11.6172C6.83509 11.621 7.53036 12.1201 8.18932 12.9871C8.84887 13.8518 9.58416 14.5161 10.3748 14.9613C11.073 15.3545 11.796 15.5689 12.5259 15.6C11.7386 15.9098 10.8775 16.0385 10.0044 15.9633ZM12.6652 14.5881C11.3766 14.5704 10.0739 13.7831 8.99746 12.3717C7.89139 10.9164 6.91365 10.6058 6.2882 10.6015C5.80705 10.5987 5.37233 10.7769 5.04736 11.1071C5.04337 11.0699 5.03967 11.0327 5.03644 10.9953C5.0225 10.8335 5.01585 10.672 5.0158 10.5113C5.10131 9.33528 5.87951 8.47748 6.8733 8.46849C6.87884 8.46844 6.88437 8.46841 6.88991 8.46841C7.91739 8.46841 9.04804 9.32692 10.0745 10.8863C11.6365 13.2813 13.2747 13.6487 14.1314 13.6487C14.1415 13.6487 14.1516 13.6487 14.1616 13.6486C14.4829 13.6453 14.7921 13.5906 15.0808 13.4926C14.4821 14.2024 13.605 14.6015 12.6652 14.5881ZM15.9328 11.2467C15.7399 12.0561 15.013 12.6242 14.1512 12.6329C14.1441 12.633 14.1371 12.633 14.13 12.633C13.0469 12.633 11.88 11.7955 10.924 10.3296C10.2886 9.3643 9.6061 8.62777 8.89544 8.14044C8.22114 7.67811 7.53734 7.44705 6.86411 7.45281C6.48569 7.45622 6.12027 7.53759 5.78348 7.68946C5.91684 7.46442 6.06689 7.24857 6.23267 7.04349C6.96478 6.4106 7.67544 6.08685 8.34545 6.08157C8.35126 6.08154 8.35693 6.08152 8.36274 6.08152C9.56402 6.08152 10.7593 7.06873 11.9154 9.01589L11.9229 9.0281C13.1498 10.9673 14.3232 11.3821 15.0916 11.3886C15.0976 11.3887 15.1035 11.3887 15.1095 11.3887C15.3915 11.3887 15.6702 11.3324 15.936 11.2244C15.935 11.2318 15.9338 11.2392 15.9328 11.2467ZM15.1096 10.373C15.1065 10.373 15.1033 10.373 15.1002 10.373C14.3723 10.3668 13.5503 9.69849 12.7851 8.49101C11.6963 6.65923 10.5188 5.5556 9.27411 5.19607C9.4164 5.17835 9.55587 5.16867 9.69179 5.16748C9.70255 5.16738 9.71317 5.16733 9.72393 5.16733C11.2063 5.16733 12.5517 6.08248 13.723 7.88763C14.3856 8.9226 14.9525 9.38456 15.6183 9.43217C15.6502 9.43443 15.6817 9.43549 15.713 9.43549C15.7699 9.43549 15.8258 9.43179 15.8807 9.42557C15.9185 9.61551 15.9464 9.80863 15.9633 10.0045C15.964 10.0127 15.9644 10.0209 15.965 10.0292C15.7681 10.1955 15.4729 10.373 15.1096 10.373Z" fill="#1D1D1D"/>
</g>
<defs>
<clipPath id="clip0_347_3">
<rect width="13" height="13" fill="white" transform="translate(4 4)"/>
</clipPath>
</defs>
</svg>
