<svg width="21" height="21" viewBox="0 0 21 21" fill="none" xmlns="http://www.w3.org/2000/svg">
<circle cx="10.5" cy="10.5" r="10.5" fill="#E4F5F6"/>
<g clip-path="url(#clip0_435_2)">
<path d="M9.78187 6.3409C9.64971 6.12491 9.44895 6.071 9.34104 6.05808C9.23316 6.04521 9.02532 6.05018 8.84596 6.22893C8.72259 6.35184 8.65998 6.51627 8.67044 6.69073C8.68049 6.85853 8.76405 7.01349 8.89271 7.12168L10.3623 8.35734C10.4784 8.45494 10.6505 8.44499 10.7545 8.33462C10.8431 8.24073 10.8577 8.09917 10.7904 7.98908L9.78187 6.3409Z" fill="black"/>
<path d="M15.4885 8.6974C14.8435 8.07207 14.0528 7.7134 13.3192 7.7134C13.0201 7.7134 12.7313 7.75243 12.4603 7.82738L11.8501 5.2454C11.7357 4.761 11.4113 4.36255 10.9601 4.1523C10.5089 3.94202 9.99519 3.94981 9.55061 4.1737C9.15945 4.37065 8.86931 4.71378 8.73802 5.12723C8.51238 5.20579 8.30426 5.3349 8.12904 5.50951C7.80874 5.82866 7.63598 6.27078 7.65508 6.72252C7.67417 7.17424 7.88359 7.60019 8.22963 7.89116L10.588 9.87414C10.5738 9.97435 10.5656 10.0762 10.5637 10.1793C10.451 10.2573 10.0563 10.3601 9.76254 10.4366C9.08701 10.6126 8.16182 10.8535 7.40341 11.3728C6.66846 11.876 6.2232 12.5537 6.0735 13.3928C6.00372 13.3814 5.93283 13.3753 5.86103 13.3753C5.14259 13.3753 4.55811 13.9598 4.55811 14.6782C4.55811 15.3967 5.14259 15.9811 5.86103 15.9811C6.11709 15.9811 6.36038 15.9081 6.56899 15.7724C7.1035 16.5153 7.97532 17 8.95833 17H14.2502C14.5288 17 14.7555 16.7733 14.7555 16.4948C14.7555 15.9316 14.2973 15.4734 13.7341 15.4734H13.6762L13.9761 14.909C14.3514 14.2028 14.3594 13.377 14.0158 12.6748C14.5394 12.5786 15.0417 12.3777 15.4559 12.0919C16.0825 11.6596 16.4418 11.0782 16.4418 10.4969C16.4419 9.95704 16.0766 9.26751 15.4885 8.6974ZM9.77902 4.62722C10.0839 4.47369 10.4362 4.46835 10.7456 4.61257C11.055 4.75676 11.2774 5.02996 11.356 5.36217L11.974 7.97761L10.6481 5.81081C10.3883 5.38621 9.95586 5.10882 9.46164 5.04966C9.41807 5.04446 9.37463 5.04164 9.33129 5.03991C9.43767 4.86523 9.59141 4.7217 9.77902 4.62722ZM8.55648 7.50246C8.31568 7.3 8.17576 7.01538 8.16248 6.70107C8.1492 6.38671 8.26462 6.0913 8.4875 5.86921C8.72931 5.62828 9.06241 5.51334 9.40129 5.55389C9.74022 5.59444 10.0368 5.78469 10.215 6.07589L11.5536 8.26353C11.478 8.31944 11.4056 8.37924 11.337 8.44304C11.066 8.69519 10.8613 8.99731 10.7306 9.33053L8.55648 7.50246ZM5.86106 15.4733C5.42262 15.4733 5.06594 15.1167 5.06594 14.6782C5.06594 14.2398 5.42262 13.8831 5.86106 13.8831C5.91496 13.8831 5.96802 13.8884 6.01987 13.8989C6.01784 13.9515 6.01649 14.0045 6.01649 14.0582C6.01649 14.5157 6.12151 14.9491 6.30866 15.3357C6.17798 15.4252 6.02371 15.4733 5.86106 15.4733ZM13.5278 14.6707L13.031 15.6056C13.0307 15.6062 13.0304 15.6067 13.0302 15.6072L13.0297 15.6082L13.0297 15.6082C13.0108 15.6437 13 15.6843 13 15.7273C13 15.8674 13.1135 15.9811 13.2536 15.9812L13.2537 15.9813C13.2539 15.9813 13.2542 15.9812 13.2544 15.9812H13.7342C14.0165 15.9812 14.2463 16.2102 14.2478 16.4922H11.6142C11.613 15.9951 11.2548 15.5806 10.7829 15.4914C11.0826 15.133 11.2549 14.6755 11.2549 14.1957C11.2549 13.0831 10.3497 12.1779 9.23709 12.1779C9.06954 12.1779 8.90291 12.1985 8.74186 12.2392C8.60592 12.2735 8.5235 12.4115 8.55783 12.5475C8.59215 12.6834 8.7302 12.766 8.86617 12.7315C8.98662 12.7011 9.11141 12.6857 9.23709 12.6857C10.0697 12.6857 10.7471 13.3631 10.7471 14.1957C10.7471 14.7357 10.4556 15.2382 9.98643 15.507L9.98648 15.5072C9.91024 15.551 9.85875 15.6331 9.85875 15.7273C9.85875 15.8675 9.97242 15.9812 10.1126 15.9812H10.1129L10.1129 15.9813C10.1132 15.9813 10.1134 15.9812 10.1137 15.9812H10.593C10.8753 15.9812 11.1051 16.2102 11.1065 16.4922H8.95841C7.61626 16.4922 6.52435 15.4003 6.52435 14.0582C6.52435 13.0703 6.90574 12.329 7.69034 11.7918C8.37563 11.3226 9.25123 11.0946 9.89059 10.928C10.1875 10.8507 10.4269 10.7881 10.6115 10.7165C10.7106 11.2106 10.9596 11.6585 11.3371 12.0096C11.8429 12.4802 12.5468 12.7393 13.3192 12.7393C13.3698 12.7393 13.4205 12.7381 13.4712 12.736C13.8307 13.325 13.8549 14.0551 13.5278 14.6707ZM13.3192 12.2315C12.6755 12.2315 12.0944 12.0206 11.6829 11.6378C11.2883 11.2707 11.071 10.7695 11.071 10.2263C11.071 9.68318 11.2883 9.1819 11.6829 8.81483C12.0944 8.43202 12.6755 8.22118 13.3192 8.22118C13.922 8.22118 14.5839 8.52762 15.135 9.06195C15.4358 9.35348 15.6743 9.68985 15.8099 9.99761C15.5564 10.071 15.3709 10.3048 15.3709 10.5821C15.3709 10.826 15.5145 11.0363 15.7216 11.1333C15.3052 11.7518 14.3331 12.2315 13.3192 12.2315Z" fill="black"/>
<path d="M14.1724 10.3594C14.3848 10.325 14.5291 10.1249 14.4947 9.91252C14.4602 9.70014 14.2601 9.55588 14.0478 9.59031C13.8354 9.62474 13.6911 9.82482 13.7255 10.0372C13.76 10.2496 13.9601 10.3938 14.1724 10.3594Z" fill="black"/>
</g>
<defs>
<clipPath id="clip0_435_2">
<rect width="13" height="13" fill="white" transform="translate(4 4)"/>
</clipPath>
</defs>
</svg>
