<svg width="21" height="21" viewBox="0 0 21 21" fill="none" xmlns="http://www.w3.org/2000/svg">
<circle cx="10.5" cy="10.5" r="10.5" fill="#FFF7E7"/>
<g clip-path="url(#clip0_347_97)">
<path d="M12.2699 15.654C10.988 16.1559 9.54556 16.0834 8.31223 15.4551C7.32685 14.9531 6.56434 14.147 6.10433 13.1386L7.24949 13.4453C7.52035 13.5179 7.79876 13.3571 7.87136 13.0862C7.94396 12.8153 7.78319 12.5368 7.51232 12.4642L5.44665 11.9109C5.14851 11.831 4.83271 12.0385 4.80197 12.355L4.27134 14.3351C4.19874 14.6061 4.35951 14.8846 4.63038 14.9572C4.90293 15.0302 5.18015 14.8672 5.25225 14.5981L5.40906 14.0131C5.97321 15.0195 6.80882 15.829 7.85123 16.36C9.31278 17.1047 11.0578 17.2192 12.6401 16.5997C12.9012 16.4975 13.03 16.2029 12.9279 15.9417C12.8256 15.6806 12.531 15.5519 12.2699 15.654ZM16.754 14.3351C16.6815 14.0642 16.4029 13.9034 16.1322 13.976L15.5473 14.1327C16.1361 13.1412 16.4191 12.0133 16.3578 10.8455C16.27 9.17375 15.473 7.61847 14.171 6.57825C13.9518 6.40319 13.6324 6.4389 13.4573 6.65809C13.2823 6.87719 13.318 7.19675 13.5371 7.37171C14.6126 8.23102 15.2711 9.51652 15.3436 10.8987C15.4016 12.0028 15.085 13.066 14.4419 13.9685L14.1349 12.8233C14.0623 12.5524 13.7839 12.3916 13.5129 12.4642C13.2421 12.5368 13.0813 12.8153 13.1539 13.0862L13.7074 15.1514C13.7892 15.4564 14.1271 15.6234 14.4196 15.4862L16.3949 14.957C16.6659 14.8845 16.8266 14.6061 16.754 14.3351Z" fill="black"/>
<path d="M5 10.5L9 5" stroke="black" stroke-width="1.2" stroke-linecap="round"/>
<path d="M6.5 5L8.9178 4.59703C9.22257 4.54624 9.5 4.78126 9.5 5.09023V7.5" stroke="black" stroke-width="1.2" stroke-linecap="round"/>
</g>
<defs>
<clipPath id="clip0_347_97">
<rect width="13" height="13" fill="white" transform="translate(4 4)"/>
</clipPath>
</defs>
</svg>
