<svg width="21" height="21" viewBox="0 0 21 21" fill="none" xmlns="http://www.w3.org/2000/svg">
<circle cx="10.5" cy="10.5" r="10.5" fill="#E7ECFF"/>
<g clip-path="url(#clip0_347_17)">
<path d="M16.7981 7.76292C16.6202 6.91488 16.0414 4.49105 15.9965 4.30321C15.9513 4.04441 15.5588 3.85809 15.3232 4.1501C14.4128 5.32426 12.7799 6.09223 10.4681 6.43288C7.5781 6.80876 5.93632 9.70726 6.69279 12.4175C5.26043 13.4 4.29231 14.7982 4.00442 16.5533C3.93773 17.0534 4.64636 17.1796 4.75469 16.6842C5.00184 15.1871 5.77047 14.0284 6.96669 13.16C7.82166 15.0281 9.78801 15.8713 11.8312 15.5799C11.8351 15.5794 11.839 15.5789 11.8429 15.5783C15.6573 15.0027 17.6711 11.6239 16.7981 7.76292ZM7.31592 11.678C7.00163 9.54067 8.36513 7.46914 10.5812 7.18604C12.4112 6.91638 13.8622 6.38388 14.9154 5.59824C13.6902 9.33529 10.4014 10.2374 7.36921 11.9784C7.34806 11.8797 7.33014 11.7796 7.31592 11.678ZM15.3211 12.6849C14.4966 13.8829 13.1945 14.5934 11.7293 14.8251C9.86237 15.0644 8.31519 14.3498 7.60673 12.7267C10.8531 10.8333 14.1995 9.96961 15.6021 5.94364C16.2477 8.49339 16.7034 10.6517 15.3211 12.6849Z" fill="black"/>
</g>
<defs>
<clipPath id="clip0_347_17">
<rect width="13" height="13" fill="white" transform="translate(4 4)"/>
</clipPath>
</defs>
</svg>
