<svg width="21" height="21" viewBox="0 0 21 21" fill="none" xmlns="http://www.w3.org/2000/svg">
<circle cx="10.5" cy="10.5" r="10.5" fill="#E7FEFF"/>
<g clip-path="url(#clip0_347_116)">
<path d="M16.9799 12.4062C16.8414 11.6678 16.05 11.2511 15.3624 11.5567L15.3491 11.5627L12.7929 12.9409C12.7695 12.3289 12.2646 11.8382 11.647 11.8382C11.1879 11.8382 10.7249 11.7925 10.2709 11.7023C9.44752 11.5388 8.88142 11.4559 8.58821 11.4559C8.22003 11.4559 7.58798 11.514 7.05881 11.6364V10.6912H4V16.4264H7.05879V15.6879C7.65206 15.7686 8.01708 16.0026 8.11557 16.0441C8.61589 16.2942 9.17595 16.4264 9.73523 16.4264C11.534 16.4264 13.312 15.8667 14.8067 14.7898L16.4181 13.629C16.846 13.3819 17.0713 12.8938 16.9799 12.4062ZM4.7647 15.6617V11.4559H6.29409V15.6617H4.7647ZM16.0277 12.9712L16.0072 12.9825L14.3598 14.1693C13.0046 15.1456 11.4054 15.6617 9.73523 15.6617C9.29402 15.6617 8.8522 15.5574 8.45757 15.3601C8.36387 15.3218 7.85736 15.003 7.05879 14.9175V12.4255C7.49028 12.3042 8.15781 12.2206 8.58818 12.2206C8.72511 12.2206 9.10644 12.2507 10.1219 12.4524C10.6248 12.5523 11.138 12.6029 11.647 12.6029C11.8578 12.6029 12.0293 12.7744 12.0293 12.9853C12.0293 13.1961 11.8578 13.3676 11.647 13.3676H9.35288V14.1323H11.647C11.9534 14.1323 12.2512 14.0705 12.5322 13.9486L12.5472 13.9421L15.6842 12.2507C15.9177 12.1552 16.1814 12.2976 16.2282 12.5472C16.2602 12.7175 16.1796 12.8879 16.0277 12.9712Z" fill="black"/>
<path d="M16.9998 9.92647V9.16178C16.9998 8.39953 16.5513 7.74028 15.9043 7.43351C16.1111 7.17267 16.2351 6.84329 16.2351 6.48534C16.2351 5.64203 15.549 4.95594 14.7057 4.95594C13.8624 4.95594 13.1763 5.64203 13.1763 6.48534C13.1763 6.84329 13.3002 7.17267 13.507 7.43351C13.2908 7.53606 13.097 7.67814 12.9344 7.85019C12.7405 7.50305 12.4417 7.22225 12.0809 7.05116C12.2877 6.79032 12.4116 6.46094 12.4116 6.10299C12.4116 5.25968 11.7255 4.57359 10.8822 4.57359C10.0389 4.57359 9.35283 5.25968 9.35283 6.10299C9.35283 6.46094 9.47676 6.79032 9.68356 7.05116C9.3228 7.22225 9.02393 7.50305 8.83001 7.85019C8.66746 7.67814 8.47366 7.53606 8.2574 7.43351C8.46417 7.17267 8.58813 6.84329 8.58813 6.48534C8.58813 5.64203 7.90205 4.95594 7.05874 4.95594C6.21543 4.95594 5.52935 5.64203 5.52935 6.48534C5.52935 6.84329 5.65328 7.17267 5.86008 7.43351C5.21319 7.74031 4.76465 8.39953 4.76465 9.16178V9.92647H16.9998ZM13.1763 9.16178C13.1763 8.52927 13.6909 8.01473 14.3234 8.01473H15.0881C15.7205 8.01473 16.2351 8.52927 16.2351 9.16178H13.1763ZM14.7057 5.72064C15.1274 5.72064 15.4704 6.06368 15.4704 6.48534C15.4704 6.90699 15.1274 7.25003 14.7057 7.25003C14.2841 7.25003 13.941 6.90699 13.941 6.48534C13.941 6.06368 14.2841 5.72064 14.7057 5.72064ZM10.8822 5.33829C11.3039 5.33829 11.6469 5.68133 11.6469 6.10299C11.6469 6.52464 11.3039 6.86768 10.8822 6.86768C10.4606 6.86768 10.1175 6.52464 10.1175 6.10299C10.1175 5.68133 10.4606 5.33829 10.8822 5.33829ZM9.35283 8.77943C9.35283 8.14692 9.86737 7.63238 10.4999 7.63238H11.2646C11.8971 7.63238 12.4116 8.14692 12.4116 8.77943V9.16178H9.35283V8.77943ZM7.05874 5.72064C7.48039 5.72064 7.82344 6.06368 7.82344 6.48534C7.82344 6.90699 7.48039 7.25003 7.05874 7.25003C6.63708 7.25003 6.29404 6.90699 6.29404 6.48534C6.29404 6.06368 6.63708 5.72064 7.05874 5.72064ZM5.52935 9.16178C5.52935 8.52927 6.04391 8.01473 6.67639 8.01473H7.44109C8.07357 8.01473 8.58813 8.52927 8.58813 9.16178H5.52935Z" fill="black"/>
</g>
<defs>
<clipPath id="clip0_347_116">
<rect width="13" height="13" fill="white" transform="translate(4 4)"/>
</clipPath>
</defs>
</svg>
