<svg width="20" height="20" viewBox="0 0 20 20" fill="none" xmlns="http://www.w3.org/2000/svg">
<path fill-rule="evenodd" clip-rule="evenodd" d="M16.3514 0.0638267C16.7416 0.210273 17 0.583316 17 1.00005V4.12606C18.7252 4.57011 20 6.13621 20 8.00005C20 9.86388 18.7252 11.43 17 11.874V15C17 15.4168 16.7416 15.7898 16.3514 15.9363C15.9613 16.0827 15.5212 15.9719 15.247 15.6581C14.634 14.9566 13.5484 14.2834 12.0587 13.7864C11.4275 13.5759 10.7368 13.4014 10 13.2708V17.2402C10 18.7644 8.76439 20 7.24018 20C6.07384 20 5.03342 19.2668 4.64114 18.1685L4.63872 18.1617L2.62855 12.4027C1.06483 11.5588 0 9.90473 0 8.00004C0 5.23862 2.23857 3.00005 4.99999 3.00005H6.83208C7.53626 3.00005 8.22018 2.96179 8.87597 2.88985C8.88462 2.88878 8.8933 2.88782 8.90201 2.88697C10.0562 2.75863 11.1228 2.52587 12.0587 2.21365C13.5484 1.71666 14.634 1.04352 15.247 0.342037C15.5212 0.0282351 15.9613 -0.0826195 16.3514 0.0638267ZM8 4.96791C7.61591 4.98917 7.22622 5.00005 6.83208 5.00005H4.99999C3.34314 5.00005 2 6.34319 2 8.00004C2 9.23923 2.75153 10.3052 3.82767 10.7626C4.1865 10.9151 4.58204 11 4.99998 11L6.83209 11C7.22623 11 7.61591 11.0109 8 11.0322V4.96791ZM10 11.2431V4.75703C10.9581 4.6059 11.8624 4.38748 12.6916 4.11087C13.5313 3.83074 14.3125 3.48458 15 3.07584L15 12.9242C14.3125 12.5155 13.5313 12.1694 12.6916 11.8892C11.8624 11.6126 10.9581 11.3942 10 11.2431ZM17 9.73248C17.5978 9.38667 18 8.74033 18 8.00005C18 7.25976 17.5978 6.61342 17 6.26761V9.73248ZM8 13.0356C7.61804 13.0122 7.22827 13 6.83208 13L4.99997 13C4.98507 13 4.97019 13 4.95532 12.9998L6.52462 17.4958C6.52495 17.4967 6.52527 17.4976 6.52559 17.4985C6.63432 17.7994 6.92002 18 7.24018 18C7.65982 18 8 17.6599 8 17.2402V13.0356Z" fill="#4B5563"/>
</svg>
