<svg width="76" height="76" viewBox="0 0 76 76" fill="none" xmlns="http://www.w3.org/2000/svg">
<rect x="0.5" y="0.5" width="75" height="75" rx="37.5" fill="#F3F4F6"/>
<path fill-rule="evenodd" clip-rule="evenodd" d="M25.1667 47.1667C25.1667 49.1917 26.8083 50.8333 28.8333 50.8333L47.1667 50.8333C49.1917 50.8333 50.8333 49.1917 50.8333 47.1667L50.8333 45.3333C50.8333 44.3208 51.6541 43.5 52.6667 43.5C53.6792 43.5 54.5 44.3208 54.5 45.3333L54.5 47.1667C54.5 51.2168 51.2168 54.5 47.1667 54.5L28.8333 54.5C24.7832 54.5 21.5 51.2168 21.5 47.1667L21.5 45.3333C21.5 44.3208 22.3208 43.5 23.3333 43.5C24.3459 43.5 25.1667 44.3208 25.1667 45.3333L25.1667 47.1667ZM29.3703 31.963C28.6543 31.2471 28.6543 30.0863 29.3703 29.3703L36.7036 22.037C37.0475 21.6932 37.5138 21.5 38 21.5C38.4862 21.5 38.9525 21.6932 39.2964 22.037L46.6297 29.3703C47.3457 30.0863 47.3457 31.2471 46.6297 31.963C45.9137 32.679 44.7529 32.679 44.037 31.963L39.8333 27.7594L39.8333 45.3333C39.8333 46.3459 39.0125 47.1667 38 47.1667C36.9875 47.1667 36.1667 46.3459 36.1667 45.3333L36.1667 27.7594L31.963 31.963C31.2471 32.679 30.0863 32.679 29.3703 31.963Z" fill="#D1D5DB"/>
<rect x="0.5" y="0.5" width="75" height="75" rx="37.5" stroke="#D1D5DB" stroke-dasharray="6 6"/>
</svg>
